<svg width="230" height="48" viewBox="0 0 230 48" fill="none" xmlns="http://www.w3.org/2000/svg">
<path d="M47.2761 29.8059C44.0707 42.663 31.0485 50.4877 18.1899 47.2815C5.33655 44.076 -2.48813 31.0531 0.718838 18.1968C3.92281 5.33814 16.9449 -2.48728 29.7998 0.71819C42.6577 3.92366 50.4816 16.948 47.2761 29.8059Z" fill="#F7931A"/>
<path d="M34.578 20.5811C35.0557 17.3876 32.6243 15.6708 29.2996 14.5256L30.378 10.1997L27.7448 9.54341L26.6948 13.7554C26.0026 13.5829 25.2916 13.4201 24.5851 13.2589L25.6426 9.01916L23.0109 8.36292L21.9316 12.6874C21.3586 12.5569 20.7961 12.4279 20.2501 12.2921L20.2531 12.2786L16.6217 11.3719L15.9212 14.1844C15.9212 14.1844 17.8749 14.6321 17.8337 14.6598C18.9002 14.9261 19.0929 15.6318 19.0607 16.1913L17.8322 21.1195C17.9057 21.1383 18.0009 21.1653 18.1059 21.2073C18.0182 21.1855 17.9244 21.1615 17.8277 21.1383L16.1057 28.042C15.9752 28.366 15.6445 28.852 14.899 28.6675C14.9252 28.7057 12.985 28.1897 12.985 28.1897L11.6777 31.2039L15.1045 32.0582C15.7419 32.2179 16.3667 32.3852 16.9817 32.5427L15.892 36.9181L18.5222 37.5744L19.6014 33.2454C20.3199 33.4404 21.0174 33.6204 21.6999 33.7899L20.6244 38.0986L23.2576 38.7549L24.3474 34.3877C28.8376 35.2374 32.214 34.8946 33.6353 30.8334C34.7805 27.5635 33.5783 25.6773 31.2158 24.4473C32.9363 24.0505 34.2323 22.9188 34.578 20.5811ZM28.5616 29.0177C27.7478 32.2877 22.2421 30.5199 20.4571 30.0767L21.9031 24.28C23.6881 24.7255 29.4121 25.6075 28.5616 29.0177ZM29.3761 20.5338C28.6336 23.5083 24.0511 21.997 22.5646 21.6265L23.8756 16.3691C25.3621 16.7396 30.1493 17.4311 29.3761 20.5338Z" fill="white"/>
<path d="M70.331 14.521C72.2773 14.521 73.9588 14.8698 75.3718 15.5545C76.7915 16.246 77.963 17.1775 78.9027 18.349C79.8297 19.5265 80.5197 20.9027 80.9652 22.48C81.4077 24.0617 81.6297 25.7619 81.6297 27.5822C81.6297 30.3781 81.1174 33.0196 80.0832 35.5096C79.049 38.0033 77.6457 40.1663 75.8607 42.0113C74.0772 43.854 71.9713 45.3067 69.5428 46.38C67.1181 47.454 64.4819 47.991 61.6514 47.991C61.2854 47.991 60.6419 47.9805 59.7329 47.9617C58.8239 47.943 57.7792 47.8492 56.6092 47.691C55.4317 47.5267 54.1867 47.2837 52.872 46.9582C51.558 46.6387 50.31 46.191 49.1348 45.6225L59.6437 1.46594L69.0561 0.00720215L65.2933 15.6768C66.0988 15.3138 66.9103 15.0325 67.7203 14.8278C68.5311 14.626 69.4011 14.521 70.331 14.521ZM62.4359 40.524C63.8534 40.524 65.1891 40.1753 66.4438 39.4905C67.7023 38.8051 68.7883 37.8796 69.6981 36.7268C70.6078 35.5688 71.3278 34.2646 71.8528 32.8074C72.3778 31.3501 72.6433 29.8299 72.6433 28.2482C72.6433 26.3049 72.3185 24.7892 71.6713 23.6935C71.024 22.6022 69.8263 22.0532 68.0871 22.0532C67.5171 22.0532 66.7828 22.162 65.8723 22.3562C64.9588 22.5625 64.1414 22.9907 63.4086 23.635L59.4022 40.2758C59.6437 40.3185 59.8574 40.3591 60.0396 40.3973C60.2181 40.4385 60.4154 40.4678 60.6119 40.4881C60.8196 40.5113 61.0574 40.5233 61.3446 40.5233C61.6319 40.5233 61.9911 40.524 62.4359 40.524Z" fill="#4D4D4D"/>
<path d="M91.3906 47.1457H82.4004L89.9926 15.1983H99.0442L91.3906 47.1457ZM95.7653 11.3059C94.5105 11.3059 93.3728 10.9324 92.3633 10.1839C91.3455 9.43988 90.8416 8.29464 90.8416 6.75116C90.8416 5.90217 91.0141 5.10566 91.3561 4.35417C91.7033 3.60418 92.157 2.95845 92.7255 2.40945C93.2933 1.86496 93.951 1.42995 94.698 1.10221C95.4495 0.779709 96.249 0.618469 97.101 0.618469C98.355 0.618469 99.4867 0.991967 100.5 1.74046C101.509 2.4927 102.017 3.63794 102.017 5.17317C102.017 6.02516 101.845 6.82465 101.5 7.57465C101.158 8.32464 100.704 8.97037 100.135 9.51937C99.5722 10.0646 98.9085 10.4981 98.163 10.8229C97.4107 11.1506 96.6143 11.3059 95.7653 11.3059Z" fill="#4D4D4D"/>
<path d="M106.924 7.23865L116.34 5.77991L114.028 15.1968H124.112L122.291 22.6052H112.268L109.598 33.7801C109.352 34.7116 109.212 35.5816 109.173 36.3901C109.129 37.2023 109.232 37.8998 109.475 38.4871C109.716 39.0758 110.151 39.5296 110.781 39.8506C111.408 40.1768 112.305 40.3411 113.483 40.3411C114.452 40.3411 115.397 40.2488 116.311 40.0658C117.219 39.8858 118.139 39.6353 119.071 39.3076L119.741 46.2345C118.526 46.68 117.211 47.0632 115.793 47.3857C114.374 47.7127 112.693 47.8702 110.751 47.8702C107.958 47.8702 105.792 47.4555 104.25 46.6298C102.709 45.798 101.62 44.6618 100.968 43.2233C100.326 41.7901 100.038 40.1378 100.119 38.2763C100.202 36.4104 100.483 34.4491 100.968 32.3836L106.924 7.23865Z" fill="#4D4D4D"/>
<path d="M123.715 34.3884C123.715 31.6367 124.16 29.0417 125.051 26.6125C125.939 24.181 127.22 22.0548 128.881 20.23C130.536 18.4143 132.553 16.9758 134.926 15.9198C137.289 14.8698 139.934 14.3403 142.849 14.3403C144.674 14.3403 146.304 14.5128 147.738 14.8586C149.178 15.2073 150.481 15.6581 151.659 16.2236L148.558 23.2735C147.748 22.945 146.908 22.6555 146.038 22.393C145.168 22.1253 144.106 21.9963 142.85 21.9963C139.849 21.9963 137.477 23.0305 135.712 25.0922C133.953 27.1555 133.067 29.9327 133.067 33.4164C133.067 35.4811 133.513 37.1506 134.407 38.4278C135.296 39.7051 136.939 40.3403 139.325 40.3403C140.503 40.3403 141.639 40.2173 142.727 39.9773C143.824 39.7343 144.792 39.4283 145.645 39.0668L146.316 46.2938C145.179 46.7348 143.925 47.133 142.549 47.4817C141.171 47.8185 139.53 47.9932 137.627 47.9932C135.115 47.9932 132.989 47.6258 131.25 46.902C129.51 46.167 128.072 45.1913 126.94 43.9553C125.801 42.7163 124.984 41.2696 124.478 39.6091C123.973 37.9501 123.715 36.2071 123.715 34.3884Z" fill="#4D4D4D"/>
<path d="M163.655 47.9932C161.509 47.9932 159.645 47.6662 158.064 47.019C156.488 46.3718 155.182 45.4635 154.149 44.286C153.115 43.1146 152.341 41.7263 151.811 40.1266C151.28 38.5276 151.025 36.7569 151.025 34.8166C151.025 32.3829 151.416 29.9499 152.206 27.5237C152.992 25.0922 154.158 22.9075 155.702 20.9658C157.233 19.021 159.122 17.431 161.347 16.1913C163.569 14.9598 166.125 14.3403 168.996 14.3403C171.103 14.3403 172.957 14.6681 174.559 15.3153C176.155 15.9611 177.469 16.8768 178.507 18.0483C179.535 19.2258 180.316 20.608 180.841 22.21C181.369 23.806 181.63 25.5812 181.63 27.5229C181.63 29.9492 181.245 32.3821 180.48 34.8159C179.714 37.2376 178.578 39.4276 177.078 41.3738C175.581 43.3156 173.709 44.9048 171.46 46.1393C169.215 47.3738 166.611 47.9932 163.655 47.9932ZM168.148 21.997C166.815 21.997 165.637 22.384 164.628 23.1482C163.616 23.9215 162.765 24.8935 162.08 26.0657C161.387 27.2432 160.873 28.5272 160.526 29.9229C160.181 31.3217 160.013 32.6439 160.013 33.9001C160.013 35.9274 160.34 37.5061 160.982 38.6423C161.634 39.7726 162.805 40.3411 164.507 40.3411C165.844 40.3411 167.016 39.9571 168.031 39.1846C169.037 38.4173 169.888 37.4446 170.579 36.2701C171.268 35.0986 171.786 33.8109 172.133 32.4129C172.473 31.0187 172.646 29.6889 172.646 28.4349C172.646 26.413 172.321 24.8305 171.672 23.6957C171.024 22.5655 169.848 21.997 168.148 21.997Z" fill="#4D4D4D"/>
<path d="M191.425 47.1457H182.428L190.02 15.1983H199.076L191.425 47.1457ZM195.793 11.3059C194.539 11.3059 193.402 10.9324 192.394 10.1839C191.382 9.43988 190.873 8.29464 190.873 6.75116C190.873 5.90217 191.048 5.10566 191.391 4.35417C191.734 3.60418 192.19 2.95845 192.759 2.40945C193.324 1.86496 193.987 1.42995 194.733 1.10221C195.48 0.779709 196.279 0.618469 197.128 0.618469C198.385 0.618469 199.521 0.991967 200.532 1.74046C201.544 2.4927 202.054 3.63794 202.054 5.17317C202.054 6.02516 201.873 6.82465 201.533 7.57465C201.193 8.32464 200.737 8.97037 200.17 9.51937C199.6 10.0646 198.945 10.4981 198.198 10.8229C197.445 11.1506 196.647 11.3059 195.793 11.3059Z" fill="#4D4D4D"/>
<path d="M205.553 16.651C206.235 16.4515 206.997 16.2115 207.826 15.9505C208.658 15.6895 209.587 15.4466 210.625 15.2276C211.652 15.0018 212.811 14.8188 214.085 14.6771C215.359 14.5323 216.811 14.4618 218.424 14.4618C223.166 14.4618 226.434 15.8425 228.239 18.5958C230.042 21.349 230.354 25.1169 229.184 29.8929L225.048 47.1427H215.999L220.007 30.2559C220.251 29.2014 220.443 28.1822 220.585 27.1862C220.728 26.1992 220.72 25.3292 220.553 24.5762C220.393 23.8322 220.016 23.2232 219.432 22.7515C218.839 22.2872 217.943 22.054 216.727 22.054C215.555 22.054 214.362 22.18 213.145 22.423L207.252 47.142H198.199L205.553 16.651Z" fill="#4D4D4D"/>
</svg>
