<svg width="32" height="32" viewBox="0 0 32 32" fill="none" xmlns="http://www.w3.org/2000/svg">
<path d="M31.5174 19.8706C29.3804 28.442 20.699 33.6585 12.1266 31.521C3.5577 29.384 -1.65875 20.7021 0.479225 12.1312C2.6152 3.55876 11.2966 -1.65819 19.8665 0.478793C28.4385 2.61577 33.6544 11.2987 31.5174 19.8706Z" fill="#F7931A"/>
<path d="M23.052 13.7207C23.3705 11.5918 21.7495 10.4473 19.533 9.68378L20.252 6.79981L18.4966 6.36231L17.7966 9.17028C17.3351 9.05528 16.8611 8.94679 16.3901 8.83929L17.0951 6.01281L15.3406 5.57532L14.6211 8.45828C14.2391 8.37128 13.8641 8.2853 13.5001 8.1948L13.5021 8.1858L11.0811 7.58129L10.6141 9.45627C10.6141 9.45627 11.9166 9.75477 11.8891 9.77327C12.6001 9.95077 12.7286 10.4213 12.7071 10.7943L11.8881 14.0797C11.9371 14.0922 12.0006 14.1102 12.0706 14.1382C12.0121 14.1237 11.9496 14.1077 11.8851 14.0922L10.7371 18.6947C10.6501 18.9107 10.4296 19.2347 9.93264 19.1117C9.95014 19.1372 8.65665 18.7932 8.65665 18.7932L7.78516 20.8027L10.0696 21.3722C10.4946 21.4787 10.9111 21.5902 11.3211 21.6952L10.5946 24.6121L12.3481 25.0496L13.0676 22.1637C13.5466 22.2936 14.0116 22.4137 14.4666 22.5267L13.7496 25.3991L15.5051 25.8366L16.2316 22.9251C19.225 23.4916 21.476 23.2631 22.4235 20.5557C23.187 18.3757 22.3855 17.1182 20.8105 16.2982C21.9575 16.0337 22.8215 15.2792 23.052 13.7207ZM19.041 19.3452C18.4985 21.5252 14.8281 20.3467 13.6381 20.0512L14.6021 16.1867C15.7921 16.4837 19.608 17.0717 19.041 19.3452ZM19.584 13.6892C19.089 15.6722 16.0341 14.6647 15.0431 14.4177L15.9171 10.9128C16.9081 11.1598 20.0995 11.6208 19.584 13.6892Z" fill="white"/>
</svg>
