<svg width="185" height="48" viewBox="0 0 185 48" fill="none" xmlns="http://www.w3.org/2000/svg">
<path fill-rule="evenodd" clip-rule="evenodd" d="M67.5955 10.6778C67.5955 11.1568 67.4534 11.625 67.1873 12.0232C66.9212 12.4215 66.543 12.7319 66.1005 12.9152C65.658 13.0985 65.171 13.1464 64.7012 13.053C64.2315 12.9596 63.8 12.7289 63.4613 12.3902C63.1226 12.0515 62.8919 11.62 62.7985 11.1502C62.705 10.6805 62.753 10.1935 62.9363 9.75103C63.1196 9.30851 63.43 8.93028 63.8283 8.66418C64.2265 8.39807 64.6947 8.25604 65.1737 8.25604C65.816 8.25604 66.432 8.51119 66.8861 8.96535C67.3403 9.41952 67.5955 10.0355 67.5955 10.6778Z" fill="#3C5E9D"/>
<path fill-rule="evenodd" clip-rule="evenodd" d="M160.916 10.7164C160.916 11.1954 160.774 11.6636 160.508 12.0619C160.242 12.4601 159.863 12.7705 159.421 12.9538C158.978 13.1371 158.491 13.1851 158.022 13.0916C157.552 12.9982 157.12 12.7675 156.782 12.4289C156.443 12.0902 156.212 11.6587 156.119 11.1889C156.025 10.7191 156.073 10.2322 156.257 9.78966C156.44 9.34715 156.75 8.96892 157.149 8.70282C157.547 8.43671 158.015 8.29468 158.494 8.29468C159.136 8.29468 159.752 8.54983 160.206 9.00399C160.661 9.45816 160.916 10.0741 160.916 10.7164Z" fill="#3C5E9D"/>
<path fill-rule="evenodd" clip-rule="evenodd" d="M19.8166 10.7164L16.054 24.7888L13.0635 25.9443L11.9801 29.9437L15.0092 28.9143L12.9915 37.2269L34.6971 37.263L36.0354 31.9254H22.8071L24.5134 25.4914L28.0727 23.9678L29.1021 20.0431L25.6149 21.2295L28.3481 10.7705L19.8166 10.7344V10.7164ZM23.9987 1.38028e-07C28.7459 -0.000508866 33.3867 1.40677 37.3341 4.04387C41.2815 6.68097 44.3582 10.4294 46.1751 14.8152C47.992 19.201 48.4675 24.027 47.5415 28.6831C46.6155 33.3391 44.3296 37.616 40.9728 40.9727C37.616 44.3295 33.3391 46.6155 28.6831 47.5415C24.027 48.4675 19.201 47.992 14.8152 46.1751C10.4294 44.3582 6.68097 41.2815 4.04387 37.3341C1.40677 33.3867 -0.000508866 28.7459 1.38028e-07 23.9987C0.00272826 17.6347 2.53203 11.5321 7.03207 7.03207C11.5321 2.53203 17.6347 0.00272826 23.9987 1.38028e-07Z" fill="#3C5E9D"/>
<path d="M57.7802 6.91779H54.5684V41.3215H57.7802V6.91779Z" fill="#3C5E9D"/>
<path fill-rule="evenodd" clip-rule="evenodd" d="M81.7416 19.0265L81.6695 21.963L77.0628 21.999V41.3215H73.8329V21.999L69.9262 22.0196L69.9082 19.0085H73.8329V10.7164H77.0628V19.0265H81.7416Z" fill="#3C5E9D"/>
<path fill-rule="evenodd" clip-rule="evenodd" d="M91.6695 18.9159C94.8248 18.2751 98.312 18.6971 100.955 20.6428C104.386 23.0825 105.724 27.6146 105.23 31.6551H86.386C86.6974 33.7475 87.7062 35.7729 89.4743 37.0314C92.9229 39.605 98.5204 38.959 100.96 35.3251L101.418 34.867C102.481 34.9957 103.511 35.289 104.555 35.4924C103.495 37.8558 101.592 39.7394 99.2179 40.7759C96.3196 42.0177 93.0559 42.1024 90.0971 41.0127C88.7232 40.4914 87.4724 39.6907 86.4239 38.6612C85.3753 37.6317 84.5518 36.3958 84.0054 35.0317C83.3555 33.369 83.0482 31.5921 83.1017 29.8077C83.1552 28.0233 83.5685 26.2681 84.3168 24.6473C85.0251 23.1968 86.0568 21.9281 87.3324 20.939C88.608 19.9498 90.0935 19.2665 91.6747 18.9416L91.6695 18.9159ZM88.697 24.0631C87.4102 25.2932 86.6974 26.9789 86.3808 28.7238C91.5743 28.7418 96.7832 28.7418 101.977 28.7238C101.719 25.88 99.8124 23.1649 97.0586 22.2641C94.2277 21.2733 90.8202 21.9347 88.6919 24.0811L88.697 24.0631Z" fill="#3C5E9D"/>
<path fill-rule="evenodd" clip-rule="evenodd" d="M110.881 22.349C115.099 17.6883 123.139 17.3769 127.725 21.6696C126.971 22.4417 126.219 23.1932 125.45 23.9447C122.292 21.1549 117.137 21.1549 113.964 23.8906C110.165 27.1205 110.407 33.8169 114.365 36.8023C117.541 39.2961 122.457 39.152 125.45 36.4343L127.766 38.6733C123.473 42.5646 116.115 42.7293 111.81 38.8741C107.177 34.8026 106.783 26.912 110.893 22.3439L110.881 22.349Z" fill="#3C5E9D"/>
<path fill-rule="evenodd" clip-rule="evenodd" d="M168.972 22.6244C170.202 20.0508 173.321 18.6791 176.294 18.6431C177.624 18.606 178.945 18.8755 180.154 19.4306C182.393 20.4214 183.677 22.3104 184.3 24.4954C184.655 25.78 184.829 27.108 184.815 28.4407L184.784 41.3396L181.626 41.3215V28.6234C181.644 26.7164 181.261 24.6781 179.902 23.2472C178.582 21.909 176.525 21.577 174.755 21.9604C172.696 22.2718 170.735 23.484 169.783 25.373C169.202 26.5344 168.911 27.8193 168.936 29.1176C168.918 33.189 168.936 37.245 168.936 41.319H165.67V19.0445L168.915 19.1012L168.954 22.6064L168.972 22.6244Z" fill="#3C5E9D"/>
<path fill-rule="evenodd" clip-rule="evenodd" d="M138.312 18.8798C141.468 18.2931 144.916 18.7692 147.613 20.5681C150.164 22.1637 151.852 24.9432 152.367 27.872C152.861 30.9345 152.367 34.239 150.586 36.8255C148.527 39.9138 144.806 41.7796 141.1 41.7153C137.962 41.8414 134.769 40.7039 132.568 38.4468C128.862 34.8876 128.275 28.8139 130.643 24.3744C132.187 21.4946 135.137 19.4846 138.33 18.8695L138.312 18.8798ZM138.624 22.0917C137.338 22.3837 136.144 22.991 135.151 23.859C134.157 24.7269 133.396 25.8283 132.934 27.0638C131.647 30.5125 132.715 34.8258 135.798 36.9541C139.401 39.6152 145.081 38.8998 147.742 35.2298C148.688 33.8916 149.245 32.3179 149.352 30.6827C149.458 29.0475 149.111 27.4147 148.347 25.9649C146.53 22.6193 142.237 21.1214 138.642 22.0762L138.624 22.0917Z" fill="#3C5E9D"/>
<path fill-rule="evenodd" clip-rule="evenodd" d="M63.5219 41.3396L63.5039 19.1372L66.6051 19.0446L66.6437 41.3396H63.5219Z" fill="#3C5E9D"/>
<path fill-rule="evenodd" clip-rule="evenodd" d="M160.019 41.3396H156.879L156.918 19.0446L160.006 19.0626L160.019 41.3396Z" fill="#3C5E9D"/>
</svg>
