<svg width="32" height="32" viewBox="0 0 32 32" fill="none" xmlns="http://www.w3.org/2000/svg">
<path fill-rule="evenodd" clip-rule="evenodd" d="M13.2104 7.1439L10.7021 16.525L8.70856 17.2953L7.98628 19.9614L10.0056 19.2751L8.66052 24.8166L23.1302 24.8407L24.0223 21.2824H15.2039L16.3414 16.9933L18.7141 15.9777L19.4004 13.3614L17.0757 14.1523L18.8977 7.17993L13.2104 7.15591V7.1439ZM15.9983 9.2014e-08C19.1629 -0.000339226 22.2566 0.937799 24.8881 2.69577C27.5195 4.45374 29.5705 6.95258 30.7817 9.87627C31.993 12.8 32.31 16.0172 31.6926 19.121C31.0753 22.2249 29.5515 25.076 27.3137 27.3137C25.076 29.5514 22.2249 31.0753 19.121 31.6926C16.0172 32.31 12.8 31.993 9.87627 30.7817C6.95259 29.5705 4.45374 27.5195 2.69577 24.888C0.937799 22.2566 -0.000339226 19.1629 9.2014e-08 15.9983C0.00181874 11.7558 1.68793 7.68766 4.6878 4.6878C7.68766 1.68793 11.7558 0.00181874 15.9983 9.2014e-08Z" fill="#3C5E9D"/>
</svg>
