<svg width="10" height="8" viewBox="0 0 10 8" fill="none" xmlns="http://www.w3.org/2000/svg">
<path d="M8.49247 0.329346C8.18667 0.329346 7.89927 0.448496 7.68297 0.664845L3.44701 4.90769L2.31801 3.77879C2.10186 3.56259 1.81446 3.44349 1.50876 3.44349C1.20301 3.44349 0.915609 3.56259 0.699408 3.77874C0.483258 3.99489 0.364258 4.28229 0.364258 4.58799C0.364258 4.89369 0.483258 5.18109 0.699408 5.39719L2.63791 7.33569C2.85406 7.55189 3.14146 7.67099 3.44721 7.67099C3.75281 7.67099 4.04031 7.55184 4.25671 7.33549L9.30177 2.28319C9.74792 1.83689 9.74787 1.1108 9.30177 0.664495C9.08562 0.448396 8.79817 0.329346 8.49247 0.329346Z" fill="white"/>
</svg>
