<svg width="8" height="8" viewBox="0 0 8 8" fill="none" xmlns="http://www.w3.org/2000/svg">
<path d="M7.34424 6.14229L5.15023 3.9514L7.34424 1.76052C7.64648 1.45828 7.64648 0.967717 7.34503 0.664664C7.04201 0.360867 6.55144 0.361649 6.24843 0.663882L4.05289 2.85633L1.85735 0.663882C1.55434 0.361649 1.06377 0.360867 0.760757 0.664664C0.458524 0.967678 0.458524 1.45824 0.761538 1.76052L2.95555 3.9514L0.761538 6.14229C0.458524 6.44453 0.458524 6.93509 0.760757 7.23815C0.911893 7.39002 1.11105 7.4652 1.30947 7.4652C1.50788 7.4652 1.70626 7.38924 1.85739 7.23889L4.05293 5.04644L6.24847 7.23889C6.3996 7.39002 6.59798 7.4652 6.79639 7.4652C6.99481 7.4652 7.19397 7.38924 7.3451 7.23815C7.64726 6.93509 7.64726 6.44453 7.34424 6.14229Z" fill="#E1233D"/>
</svg>
