<svg width="28" height="28" viewBox="0 0 28 28" fill="none" xmlns="http://www.w3.org/2000/svg">
<path d="M15.75 24.5H11.0833C10.7613 24.5 10.5 24.2387 10.5 23.9167C10.5 23.5947 10.7613 23.3334 11.0833 23.3334H15.75C16.7148 23.3334 17.5 22.5482 17.5 21.5834V15.75C17.5 15.428 17.7613 15.1667 18.0833 15.1667C18.4053 15.1667 18.6667 15.428 18.6667 15.75V21.5834C18.6667 23.191 17.3588 24.5 15.75 24.5Z" fill="#9099A6"/>
<path d="M27.417 12.8334H15.7503C15.4283 12.8334 15.167 12.572 15.167 12.25C15.167 11.928 15.4283 11.6667 15.7503 11.6667H27.417C27.739 11.6667 28.0003 11.928 28.0003 12.25C28.0003 12.572 27.739 12.8334 27.417 12.8334Z" fill="#9099A6"/>
<path d="M9.33334 28C9.07667 28 8.82584 27.9569 8.58901 27.8729L1.60067 25.543C0.644 25.2245 0 24.3355 0 23.3333V2.33333C0 1.0465 1.0465 0 2.33333 0C2.59233 0 2.84434 0.0431667 3.07884 0.128333L10.066 2.457C11.0227 2.77433 11.6667 3.66334 11.6667 4.66667V25.6667C11.6667 26.9535 10.6202 28 9.33334 28ZM2.33333 1.16667C1.68933 1.16667 1.16667 1.6905 1.16667 2.33333V23.3333C1.16667 23.8327 1.48867 24.276 1.96933 24.437L8.96934 26.7703C9.73467 27.0422 10.5 26.4297 10.5 25.6667V4.66667C10.5 4.16617 10.178 3.72284 9.69734 3.56417L2.69734 1.23083C2.57717 1.18767 2.45467 1.16667 2.33333 1.16667Z" fill="#9099A6"/>
<path d="M18.0833 9.33334C17.7613 9.33334 17.5 9.07201 17.5 8.75V2.91667C17.5 1.95183 16.7148 1.16667 15.75 1.16667H2.33333C2.01133 1.16667 1.75 0.905334 1.75 0.583334C1.75 0.261333 2.01133 0 2.33333 0H15.75C17.3588 0 18.6667 1.309 18.6667 2.91667V8.75C18.6667 9.07201 18.4053 9.33334 18.0833 9.33334Z" fill="#9099A6"/>
<path d="M22.7496 17.5C22.6003 17.5 22.451 17.4429 22.3366 17.3297C22.1091 17.1022 22.1091 16.7324 22.3366 16.5049L26.5903 12.2512L22.3366 7.99753C22.1091 7.77003 22.1091 7.4002 22.3366 7.1727C22.5641 6.9452 22.934 6.9452 23.1615 7.1727L27.8281 11.8394C28.0556 12.0669 28.0556 12.4367 27.8281 12.6642L23.1615 17.3309C23.0483 17.4429 22.899 17.5 22.7496 17.5Z" fill="#9099A6"/>
</svg>
