<svg width="28" height="26" viewBox="0 0 28 26" fill="none" xmlns="http://www.w3.org/2000/svg">
<path d="M27.8767 7.67372C23.4999 3.16137 24.3075 3.72029 23.7514 3.52628H15.2381L12.0027 0.128001C11.9235 0.0480993 11.8164 0.00218172 11.704 0H1.59118C1.16932 0.000499087 0.764892 0.168301 0.466596 0.466596C0.168301 0.764892 0.000499087 1.16932 0 1.59118V19.964C0.000499087 20.3858 0.168301 20.7903 0.466596 21.0885C0.764892 21.3868 1.16932 21.5546 1.59118 21.5551H12.0482V23.4905C12.0487 23.9123 12.2165 24.3168 12.5148 24.6151C12.813 24.9134 13.2175 25.0812 13.6393 25.0817H26.4088C26.8307 25.0812 27.2351 24.9134 27.5334 24.6151C27.8317 24.3168 27.9995 23.9123 28 23.4905V7.96767C27.9978 7.85756 27.9537 7.75242 27.8767 7.67372ZM24.1647 4.97154L26.6243 7.55514H24.1647V4.97154ZM17.4841 14.9193C16.3762 14.9193 13.9953 14.9193 12.8732 14.9193V13.6888H17.4841C17.5935 13.6888 17.6984 13.6454 17.7758 13.568C17.8532 13.4906 17.8966 13.3857 17.8966 13.2763V11.9711L20.914 14.3017L17.8966 16.6338V15.3319C17.8966 15.2225 17.8532 15.1175 17.7758 15.0402C17.6984 14.9628 17.5935 14.9193 17.4841 14.9193ZM10.5166 10.1611H15.1268V11.394H10.5166C10.4624 11.394 10.4088 11.4046 10.3587 11.4253C10.3087 11.4461 10.2632 11.4765 10.2248 11.5148C10.1865 11.5531 10.1561 11.5986 10.1354 11.6486C10.1147 11.6987 10.1041 11.7524 10.1041 11.8065V13.1087L7.08675 10.7764L10.1041 8.44573V9.74861C10.1041 9.80279 10.1147 9.85645 10.1354 9.90652C10.1561 9.95658 10.1865 10.0021 10.2248 10.0404C10.2632 10.0787 10.3087 10.1091 10.3587 10.1298C10.4088 10.1505 10.4624 10.1612 10.5166 10.1611ZM14.5764 4.02862H12.1165V1.44432L14.5764 4.02862ZM0.825055 19.964V1.59118C0.825304 1.38807 0.906101 1.19334 1.04972 1.04972C1.19334 0.906101 1.38807 0.825304 1.59118 0.825055H11.2915V4.44115C11.2915 4.55056 11.3349 4.65549 11.4123 4.73285C11.4897 4.81022 11.5946 4.85368 11.704 4.85368H15.1268V9.33608H10.9291V7.60583C10.9281 7.52917 10.9058 7.45431 10.8648 7.38953C10.8238 7.32476 10.7656 7.27259 10.6968 7.23882C10.628 7.20504 10.5512 7.19097 10.4749 7.19817C10.3985 7.20536 10.3257 7.23354 10.2644 7.27958L6.16033 10.4499C6.11087 10.4887 6.07088 10.5383 6.04338 10.5948C6.01588 10.6514 6.0016 10.7134 6.0016 10.7763C6.0016 10.8391 6.01588 10.9012 6.04338 10.9577C6.07088 11.0143 6.11087 11.0638 6.16033 11.1026L10.2642 14.2756C10.3363 14.3317 10.4252 14.3622 10.5166 14.3621C10.6258 14.3614 10.7304 14.3177 10.8076 14.2405C10.8848 14.1633 10.9285 14.0588 10.9291 13.9496V12.2191H15.1268V12.8638H12.4607C12.3513 12.8638 12.2463 12.9072 12.169 12.9846C12.0916 13.062 12.0482 13.1669 12.0482 13.2763V15.3319C12.0482 15.4413 12.0916 15.5462 12.169 15.6236C12.2463 15.7009 12.3513 15.7444 12.4607 15.7444H15.1268V19.964C15.1265 20.1671 15.0457 20.3618 14.9021 20.5054C14.7585 20.649 14.5638 20.7298 14.3607 20.7301H1.59118C1.38807 20.7298 1.19334 20.649 1.04972 20.5054C0.906101 20.3618 0.825304 20.1671 0.825055 19.964ZM27.1749 23.4905C27.1747 23.6936 27.0939 23.8883 26.9503 24.0319C26.8067 24.1756 26.6119 24.2564 26.4088 24.2566H13.6393C13.4362 24.2564 13.2415 24.1756 13.0979 24.0319C12.9543 23.8883 12.8735 23.6936 12.8732 23.4905V21.5551H14.3607C14.7825 21.5546 15.187 21.3868 15.4852 21.0885C15.7835 20.7903 15.9513 20.3858 15.9518 19.964V15.7444H17.0716V17.4747C17.0716 17.5518 17.0932 17.6274 17.134 17.6928C17.1748 17.7583 17.2331 17.811 17.3023 17.845C17.372 17.8773 17.4491 17.8903 17.5255 17.8825C17.6019 17.8748 17.6748 17.8466 17.7366 17.8009L21.8404 14.628C21.8898 14.5891 21.9297 14.5395 21.9571 14.483C21.9846 14.4265 21.9988 14.3645 21.9988 14.3016C21.9988 14.2388 21.9846 14.1768 21.9571 14.1202C21.9297 14.0637 21.8898 14.0141 21.8404 13.9752L17.7363 10.8047C17.6753 10.7575 17.6023 10.7284 17.5255 10.7207C17.4488 10.7129 17.3715 10.7268 17.3022 10.7608C17.233 10.7948 17.1747 10.8476 17.1339 10.913C17.0932 10.9785 17.0716 11.054 17.0716 11.1312V12.8638H15.9518C15.9518 12.1922 15.9533 10.441 15.9518 9.74861C15.9495 9.7413 15.9518 4.44917 15.9518 4.44092C15.9502 4.41098 15.9469 4.38115 15.9419 4.35157H23.3389V7.96767C23.3389 8.0219 23.3496 8.07561 23.3704 8.1257C23.3912 8.1758 23.4216 8.22131 23.46 8.25962C23.4984 8.29794 23.5439 8.32831 23.5941 8.349C23.6442 8.36969 23.6979 8.38029 23.7521 8.3802H27.1749V23.4905Z" fill="#9099A6"/>
<path d="M20.7432 11.1321C20.7432 11.2415 20.7866 11.3465 20.864 11.4238C20.9414 11.5012 21.0463 11.5447 21.1557 11.5447H25.0252C25.1346 11.5447 25.2395 11.5012 25.3169 11.4238C25.3943 11.3465 25.4377 11.2415 25.4377 11.1321C25.4377 11.0227 25.3943 10.9178 25.3169 10.8404C25.2395 10.7631 25.1346 10.7196 25.0252 10.7196H21.1557C21.0463 10.7197 20.9414 10.7632 20.8641 10.8405C20.7867 10.9179 20.7432 11.0227 20.7432 11.1321Z" fill="#9099A6"/>
<path d="M25.0259 13.8914H23.0912C22.9818 13.8914 22.8769 13.9348 22.7995 14.0122C22.7222 14.0895 22.6787 14.1945 22.6787 14.3039C22.6787 14.4133 22.7222 14.5182 22.7995 14.5956C22.8769 14.673 22.9818 14.7164 23.0912 14.7164H25.0259C25.1353 14.7164 25.2402 14.673 25.3176 14.5956C25.3949 14.5182 25.4384 14.4133 25.4384 14.3039C25.4384 14.1945 25.3949 14.0895 25.3176 14.0122C25.2402 13.9348 25.1353 13.8914 25.0259 13.8914Z" fill="#9099A6"/>
<path d="M25.0252 17.0633H21.1557C21.0463 17.0633 20.9414 17.1068 20.864 17.1841C20.7866 17.2615 20.7432 17.3664 20.7432 17.4758C20.7432 17.5852 20.7866 17.6902 20.864 17.7675C20.9414 17.8449 21.0463 17.8883 21.1557 17.8883H25.0252C25.1346 17.8883 25.2395 17.8449 25.3169 17.7675C25.3943 17.6902 25.4377 17.5852 25.4377 17.4758C25.4377 17.3664 25.3943 17.2615 25.3169 17.1841C25.2395 17.1068 25.1346 17.0633 25.0252 17.0633Z" fill="#9099A6"/>
<path d="M2.97405 8.01835H6.84379C6.9532 8.01835 7.05813 7.97489 7.13549 7.89753C7.21286 7.82016 7.25632 7.71523 7.25632 7.60583C7.25632 7.49642 7.21286 7.39149 7.13549 7.31413C7.05813 7.23676 6.9532 7.1933 6.84379 7.1933H2.97405C2.86464 7.1933 2.75971 7.23676 2.68235 7.31413C2.60499 7.39149 2.56152 7.49642 2.56152 7.60583C2.56152 7.71523 2.60499 7.82016 2.68235 7.89753C2.75971 7.97489 2.86464 8.01835 2.97405 8.01835Z" fill="#9099A6"/>
<path d="M2.97405 11.1901H4.90892C5.01833 11.1901 5.12326 11.1466 5.20062 11.0693C5.27799 10.9919 5.32145 10.887 5.32145 10.7776C5.32145 10.6682 5.27799 10.5632 5.20062 10.4859C5.12326 10.4085 5.01833 10.3651 4.90892 10.3651H2.97405C2.86464 10.3651 2.75971 10.4085 2.68235 10.4859C2.60499 10.5632 2.56152 10.6682 2.56152 10.7776C2.56152 10.887 2.60499 10.9919 2.68235 11.0693C2.75971 11.1466 2.86464 11.1901 2.97405 11.1901Z" fill="#9099A6"/>
<path d="M6.84379 13.537H2.97405C2.86464 13.537 2.75971 13.5805 2.68235 13.6579C2.60499 13.7352 2.56152 13.8402 2.56152 13.9496C2.56152 14.059 2.60499 14.1639 2.68235 14.2413C2.75971 14.3186 2.86464 14.3621 2.97405 14.3621H6.84379C6.9532 14.3621 7.05813 14.3186 7.13549 14.2413C7.21286 14.1639 7.25632 14.059 7.25632 13.9496C7.25632 13.8402 7.21286 13.7352 7.13549 13.6579C7.05813 13.5805 6.9532 13.537 6.84379 13.537Z" fill="#9099A6"/>
</svg>
