<svg width="28" height="28" viewBox="0 0 28 28" fill="none" xmlns="http://www.w3.org/2000/svg">
<path d="M27.3171 25.2077H24.9055V9.81429C24.9055 9.43777 24.5991 9.13141 24.2226 9.13141H22.6645C22.4382 9.13141 22.2548 9.31483 22.2548 9.54113C22.2548 9.76742 22.4382 9.95085 22.6645 9.95085H24.0861V25.2077H20.1941V9.95085H20.7379C20.9642 9.95085 21.1476 9.76742 21.1476 9.54113C21.1476 9.31483 20.9642 9.13141 20.7379 9.13141H20.0576C19.681 9.13141 19.3747 9.43777 19.3747 9.81429V25.2078H16.7655V15.0016C16.7655 14.6251 16.4591 14.3187 16.0826 14.3187H11.9175C11.541 14.3187 11.2346 14.6251 11.2346 15.0016V25.2077H8.62537V19.4829C8.62537 19.1064 8.31901 18.8 7.94248 18.8H3.77743C3.40091 18.8 3.09455 19.1064 3.09455 19.4829V21.3152C3.09455 21.5415 3.27797 21.7249 3.50427 21.7249C3.73056 21.7249 3.91398 21.5415 3.91398 21.3152V19.6195H7.80587V25.2078H3.91398V23.2205C3.91398 22.9943 3.73056 22.8108 3.50427 22.8108C3.27797 22.8108 3.09455 22.9943 3.09455 23.2205V25.2078H0.682883C0.306359 25.2077 0 25.5141 0 25.8907V27.1972C0 27.5737 0.306359 27.8801 0.682883 27.8801H27.3171C27.6936 27.8801 28 27.5737 28 27.1972V25.8907C28 25.5141 27.6936 25.2077 27.3171 25.2077ZM12.0541 15.1382H15.946V25.2078H12.0541V15.1382ZM27.1805 27.0606H0.819492V26.0273H3.50432H8.2157H11.6444H16.3558H19.7844H24.4958H27.1806V27.0606H27.1805Z" fill="#9099A6"/>
<path d="M3.4045 15.0038L3.17011 16.3704C3.10476 16.7515 3.25849 17.1293 3.57124 17.3565C3.74799 17.4849 3.95477 17.5502 4.16291 17.5502C4.32314 17.5502 4.4842 17.5115 4.63306 17.4333L5.8603 16.7881L7.08754 17.4333C7.42967 17.6132 7.83649 17.5838 8.14935 17.3566C8.46211 17.1293 8.61584 16.7514 8.55049 16.3704L8.3161 15.0038L9.30895 14.036C9.58578 13.7662 9.68356 13.3701 9.56412 13.0025C9.44463 12.6348 9.1328 12.3718 8.75021 12.3162L7.3781 12.1168L6.7645 10.8735C6.59339 10.5268 6.24694 10.3115 5.8603 10.3115C5.47371 10.3115 5.12727 10.5268 4.95621 10.8735L4.34261 12.1168L2.97045 12.3162C2.58785 12.3718 2.27603 12.6347 2.15653 13.0025C2.0371 13.3702 2.13482 13.7662 2.41165 14.036L3.4045 15.0038ZM2.93589 13.2557C2.94682 13.2221 2.98346 13.1424 3.0883 13.1272L4.52308 12.9186C4.75074 12.8857 4.94746 12.7427 5.04934 12.5364L5.69104 11.2362C5.73791 11.1412 5.82503 11.1309 5.8603 11.1309C5.89557 11.1309 5.98269 11.1411 6.02961 11.2362L6.67132 12.5363C6.77314 12.7426 6.96985 12.8856 7.19746 12.9186L8.63235 13.1272C8.73719 13.1424 8.77383 13.2221 8.78477 13.2557C8.79571 13.2893 8.81288 13.3753 8.73697 13.4492L7.69878 14.4612C7.53396 14.6217 7.45882 14.853 7.49775 15.0798L7.74286 16.5089C7.76075 16.6133 7.69627 16.6728 7.66772 16.6935C7.63912 16.7143 7.56256 16.7573 7.46893 16.7079L6.18553 16.0331C6.0837 15.9796 5.97197 15.9529 5.8603 15.9529C5.74863 15.9529 5.6369 15.9797 5.53507 16.0331L4.25167 16.7079C4.15788 16.7572 4.08142 16.7143 4.05288 16.6935C4.02433 16.6728 3.95985 16.6133 3.97774 16.5089L4.22285 15.0798C4.26178 14.853 4.18659 14.6218 4.02192 14.4613L2.98363 13.4492C2.90778 13.3753 2.92495 13.2893 2.93589 13.2557Z" fill="#9099A6"/>
<path d="M11.5442 10.0187L11.3098 11.3853C11.2445 11.7664 11.3982 12.1442 11.7109 12.3714C11.8877 12.4998 12.0944 12.5651 12.3026 12.5651C12.4629 12.5651 12.6239 12.5264 12.7728 12.4482L14 11.803L15.2273 12.4482C15.5695 12.6282 15.9763 12.5987 16.2892 12.3714C16.602 12.1442 16.7556 11.7663 16.6903 11.3853L16.4558 10.0187L17.4487 9.0509C17.7256 8.78107 17.8233 8.38503 17.7039 8.01736C17.5844 7.64964 17.2725 7.38676 16.8899 7.33114L15.5178 7.13175L14.9042 5.88838C14.7331 5.54171 14.3866 5.32635 14 5.32635C13.6134 5.32635 13.267 5.54171 13.0959 5.88838L12.4823 7.13175L11.1101 7.33114C10.7276 7.38676 10.4157 7.64964 10.2962 8.01736C10.1767 8.38497 10.2744 8.78107 10.5513 9.05096L11.5442 10.0187ZM11.0756 8.27057C11.0865 8.23699 11.1231 8.15736 11.228 8.1421L12.663 7.93358C12.8906 7.90044 13.0872 7.7576 13.189 7.55132L13.8307 6.25107C13.8776 6.15607 13.9647 6.14585 14 6.14585C14.0353 6.14585 14.1224 6.15607 14.1692 6.25107L14.8111 7.55148C14.9128 7.75765 15.1095 7.90044 15.3371 7.93358L16.772 8.1421C16.8769 8.15736 16.9135 8.2371 16.9244 8.27062C16.9353 8.3042 16.9525 8.39017 16.8767 8.4641L15.8384 9.47621C15.6737 9.63677 15.5986 9.86793 15.6374 10.0947L15.8825 11.5238C15.9004 11.6282 15.8359 11.6877 15.8074 11.7084C15.7789 11.7291 15.7023 11.7722 15.6086 11.7228L14.3252 11.0481C14.2234 10.9946 14.1117 10.9678 14 10.9678C13.8883 10.9678 13.7766 10.9946 13.6748 11.048L12.3913 11.7228C12.2975 11.7722 12.2211 11.7291 12.1926 11.7084C12.164 11.6877 12.0996 11.6282 12.1175 11.5238L12.3626 10.0947C12.4015 9.86804 12.3264 9.63682 12.1616 9.47615L11.1233 8.46416C11.0475 8.39017 11.0647 8.3042 11.0756 8.27057Z" fill="#9099A6"/>
<path d="M19.6839 4.69235L19.4495 6.05894C19.3841 6.43995 19.5378 6.81784 19.8505 7.04506C20.1634 7.27229 20.5701 7.30166 20.9124 7.12184L22.1397 6.47664L23.3669 7.12184C23.5158 7.20005 23.6768 7.23871 23.8371 7.23871C24.0453 7.23871 24.2521 7.17347 24.4288 7.04506C24.7416 6.81784 24.8952 6.43995 24.8298 6.05894L24.5954 4.69235L25.5883 3.72455C25.8652 3.45472 25.9629 3.05867 25.8435 2.69106C25.724 2.32334 25.4122 2.06041 25.0296 2.00479L23.6574 1.80534L23.0438 0.562023C22.8727 0.215359 22.5262 0 22.1397 0C21.7531 0 21.4066 0.215359 21.2355 0.562023L20.6219 1.80534L19.2498 2.00479C18.8672 2.06035 18.5553 2.32329 18.4358 2.69101C18.3164 3.05862 18.4141 3.45472 18.6909 3.72455L19.6839 4.69235ZM19.2152 2.94427C19.2261 2.91069 19.2628 2.83101 19.3677 2.81575L20.8024 2.60723C21.0302 2.5742 21.227 2.4313 21.3287 2.22496L21.9704 0.924766C22.0173 0.829773 22.1044 0.819547 22.1397 0.819547C22.1749 0.819547 22.2621 0.829773 22.3089 0.924766L22.9507 2.22502C23.0525 2.4313 23.2493 2.57425 23.4768 2.60723L24.9117 2.81575C25.0165 2.83101 25.0532 2.91074 25.0641 2.94427C25.075 2.97784 25.0922 3.06381 25.0163 3.13775L23.978 4.14991C23.8134 4.31047 23.7382 4.54163 23.777 4.76842L24.0222 6.19746C24.04 6.30191 23.9756 6.36141 23.947 6.38214C23.9185 6.40292 23.842 6.44585 23.7482 6.39647L22.4648 5.72179C22.363 5.66825 22.2513 5.64145 22.1396 5.64145C22.0279 5.64145 21.9162 5.66825 21.8144 5.72173L20.531 6.39647C20.4373 6.44585 20.3607 6.40281 20.3322 6.38214C20.3036 6.36136 20.2392 6.30191 20.257 6.19746L20.5021 4.76853C20.5411 4.5418 20.466 4.31058 20.3012 4.14985L19.2629 3.13775C19.1871 3.06381 19.2043 2.97779 19.2152 2.94427Z" fill="#9099A6"/>
</svg>
