<svg width="28" height="29" viewBox="0 0 28 29" fill="none" xmlns="http://www.w3.org/2000/svg">
<path d="M13.9511 3.57044C14.2564 3.57044 14.5038 3.32299 14.5038 3.01775V0.552688C14.5038 0.24745 14.2564 0 13.9511 0C13.6459 0 13.3984 0.24745 13.3984 0.552688V3.01775C13.3985 3.32299 13.6459 3.57044 13.9511 3.57044Z" fill="#9099A6"/>
<path d="M27.4608 18.9873L26.4844 18.0137C26.1371 17.6668 25.6742 17.4757 25.1809 17.4757C24.8655 17.4757 24.5628 17.5542 24.2945 17.7012L22.4546 15.8636L22.5442 15.7741C23.2906 15.0262 23.2903 13.8109 22.5441 13.0655C22.2775 12.7983 21.9447 12.6202 21.582 12.5452C21.632 12.3729 21.6583 12.1923 21.6583 12.0075C21.6583 11.4941 21.4588 11.0127 21.0979 10.6532C20.8311 10.3861 20.4985 10.2079 20.1358 10.133C20.1857 9.9606 20.212 9.7801 20.212 9.59527C20.212 9.08182 20.0126 8.60047 19.651 8.24041C19.3779 7.96766 19.0422 7.79501 18.6897 7.72153C18.8783 7.07137 18.7171 6.33989 18.2057 5.82754C17.7799 5.4036 17.2022 5.2214 16.6454 5.28045L12.9996 4.59034C12.4435 4.48486 11.7491 4.41511 11.3108 4.81491C11.2832 4.84015 11.2549 4.86918 11.2272 4.90151C10.5476 4.65378 9.75488 4.8013 9.21064 5.34493C8.84959 5.70554 8.65071 6.18672 8.65071 6.69984C8.65071 6.88468 8.67689 7.06517 8.72677 7.2376C8.36446 7.31251 8.03217 7.49043 7.76639 7.7567C7.40462 8.11699 7.20514 8.59762 7.20475 9.11013C7.20459 9.29541 7.23088 9.47651 7.28104 9.64938C6.91856 9.72412 6.58605 9.90171 6.31944 10.168C5.95768 10.5294 5.75847 11.0108 5.75847 11.5237C5.75847 11.9165 5.87575 12.2907 6.09307 12.6068C5.81867 12.6998 5.56733 12.8546 5.35686 13.0649C4.60996 13.8109 4.60968 15.0262 5.35736 15.7752L5.44665 15.8641L3.60655 17.7009C2.9227 17.3789 2.08014 17.4995 1.51582 18.0631L0.538858 19.0373C0.191364 19.3844 5.48792e-05 19.8473 0 20.3409C0 20.8345 0.191364 21.2975 0.538858 21.6446L1.75811 22.8624C1.97406 23.0781 2.32402 23.0779 2.5397 22.8619C2.75543 22.646 2.75521 22.296 2.53926 22.0803L1.32001 20.8626C1.1816 20.7243 1.10538 20.539 1.10538 20.3409C1.10538 20.1429 1.1816 19.9577 1.31968 19.8197L2.29669 18.8455C2.54079 18.6016 2.91441 18.5653 3.19814 18.7349C3.21811 18.765 3.24122 18.7935 3.26767 18.82C3.31503 18.8675 3.36909 18.9039 3.42649 18.9305L9.02927 24.525C9.05588 24.583 9.09243 24.6376 9.14012 24.6854C9.18655 24.7319 9.23951 24.7678 9.29571 24.7943C9.41419 24.9282 9.47966 25.0993 9.47966 25.2819C9.47966 25.48 9.40343 25.6652 9.26503 25.8034L8.289 26.7783C8.00061 27.0654 7.53151 27.0654 7.24399 26.7792L6.02474 25.5598C5.8089 25.344 5.45899 25.344 5.24315 25.5598C5.02731 25.7757 5.02731 26.1256 5.24315 26.3414L6.46328 27.5617C6.82241 27.9193 7.29404 28.098 7.76589 28.098C8.23785 28.098 8.71003 27.919 9.0696 27.5611L10.0462 26.5856C10.3937 26.2385 10.5851 25.7755 10.5851 25.2819C10.5851 24.9296 10.4871 24.5932 10.305 24.3031L12.3759 22.2347C12.3781 22.2325 12.3803 22.2302 12.3825 22.228C12.6197 21.9828 13.28 22.0287 13.9187 22.073C14.3724 22.1046 14.8783 22.1397 15.3725 22.0827L17.6404 24.3478C17.4934 24.6157 17.415 24.9181 17.415 25.233C17.415 25.7261 17.6064 26.1887 17.9539 26.5359L18.9306 27.5113C19.2778 27.8582 19.7407 28.0493 20.234 28.0493C20.7272 28.0493 21.1901 27.8583 21.5374 27.5113L27.4611 21.5948C27.8086 21.2478 28 20.7848 28 20.2912C27.9999 19.7977 27.8086 19.3347 27.4608 18.9873ZM12.7938 5.6764L15.1913 6.1302L13.7562 7.56468C13.5342 7.458 13.23 7.25901 12.8962 6.93972C12.4393 6.50266 12.1125 5.99805 12.0828 5.68332C12.0827 5.68315 12.0827 5.68299 12.0827 5.68282C12.0827 5.68277 12.0827 5.68271 12.0827 5.68266C12.0805 5.66005 12.08 5.64199 12.0803 5.62822C12.1525 5.61066 12.3445 5.59117 12.7938 5.6764ZM9.99174 6.12701C10.2717 5.84729 10.7067 5.81503 11.0231 6.02927C11.2024 6.78101 11.8436 7.46233 12.1321 7.73837C12.3459 7.94296 13.032 8.55635 13.7245 8.72494C13.8181 8.85923 13.8691 9.01931 13.8691 9.18823C13.8691 9.40582 13.7854 9.60926 13.6329 9.7616C13.4808 9.91395 13.2771 9.9978 13.0591 9.9978C12.8411 9.9978 12.6373 9.91395 12.4845 9.76089L12.4845 9.76084L12.4842 9.76056L9.99168 7.27256C9.83972 7.12082 9.75603 6.91738 9.75603 6.69984C9.75609 6.48225 9.83978 6.27881 9.99174 6.12701ZM8.54754 8.53879C8.69961 8.3865 8.90315 8.30259 9.1208 8.30259C9.33873 8.30259 9.54294 8.38666 9.69599 8.53956L11.703 10.5426C12.0191 10.8591 12.0191 11.3742 11.7041 11.6897C11.5512 11.842 11.3468 11.9258 11.1284 11.9258C10.91 11.9258 10.7056 11.842 10.5533 11.6903L10.5533 11.6903L9.03064 10.168C9.02828 10.1656 9.0257 10.1634 9.02328 10.161L8.54693 9.68488C8.3941 9.53221 8.30997 9.32839 8.31013 9.11096C8.31035 8.89424 8.39421 8.69146 8.54754 8.53879ZM7.10059 10.9501C7.25277 10.7981 7.45676 10.7144 7.67507 10.7144C7.89157 10.7144 8.0938 10.7969 8.24532 10.9462L9.7726 12.4728C9.92489 12.6245 10.0088 12.8277 10.0088 13.045C10.0088 13.2623 9.92489 13.4655 9.772 13.6178C9.61988 13.7697 9.41611 13.8534 9.19818 13.8534C8.97993 13.8534 8.77551 13.7695 8.62316 13.6178L8.06949 13.0648C8.06938 13.0646 8.06921 13.0645 8.0691 13.0644L7.10065 12.0971C6.94798 11.9446 6.8639 11.7409 6.8639 11.5236C6.8639 11.3063 6.94798 11.1025 7.10059 10.9501ZM6.13801 13.8469C6.29085 13.6942 6.49511 13.6102 6.71315 13.6102C6.93113 13.6102 7.13533 13.6942 7.28812 13.8468L7.84256 14.4005C7.9949 14.5522 8.07876 14.7554 8.07876 14.9728C8.07876 15.1901 7.99485 15.3932 7.84141 15.5461C7.68934 15.6984 7.48557 15.7823 7.26759 15.7823C7.04956 15.7823 6.84579 15.6985 6.69262 15.545L6.6232 15.4759C6.62227 15.475 6.62155 15.474 6.62068 15.4731C6.61963 15.4721 6.61854 15.4712 6.61749 15.4702L6.13856 14.9932C5.82251 14.6765 5.82224 14.1623 6.13801 13.8469ZM17.4011 20.1283C17.1854 19.9123 16.8354 19.9121 16.6195 20.1278L16.1278 20.6189C15.6605 21.0861 14.8139 21.0273 13.9952 20.9705C13.1061 20.9087 12.1867 20.8449 11.5917 21.4557L9.556 23.489L4.46524 18.4057L6.26682 16.6074C6.56459 16.7899 6.90819 16.8878 7.2677 16.8878C7.78131 16.8878 8.26293 16.6887 8.62267 16.3283C8.98481 15.9676 9.1843 15.4863 9.1843 14.9728C9.1843 14.968 9.18397 14.9633 9.18397 14.9586C9.18875 14.9586 9.19352 14.9589 9.19829 14.9589C9.71119 14.9589 10.1924 14.7604 10.5527 14.4006C10.9148 14.0399 11.1143 13.5585 11.1143 13.0451C11.1143 13.0404 11.114 13.0356 11.114 13.0309C11.1188 13.0309 11.1236 13.0312 11.1285 13.0312C11.6412 13.0312 12.1228 12.8329 12.4854 12.4718C12.8619 12.0947 13.0481 11.5982 13.0445 11.1029C13.0494 11.1029 13.0544 11.1032 13.0593 11.1032C13.5729 11.1031 14.0545 10.9041 14.4148 10.5431C14.7758 10.1825 14.9747 9.70135 14.9747 9.18823C14.9747 8.82937 14.8771 8.48632 14.6952 8.18915L16.2742 6.61077C16.3919 6.49361 16.537 6.42007 16.6891 6.38972C16.7055 6.38796 16.7218 6.38533 16.7379 6.38215C16.9819 6.34851 17.2381 6.4238 17.4247 6.60962C17.7407 6.92622 17.7407 7.44131 17.4258 7.75676L16.9449 8.23569C16.9433 8.23728 16.9416 8.23871 16.94 8.2403L16.3861 8.79326C16.1701 9.00894 16.1699 9.3589 16.3857 9.57485C16.6014 9.79086 16.9513 9.79102 17.1672 9.57535L17.6501 9.09318C17.6502 9.09307 17.6503 9.09296 17.6504 9.09285L17.7234 9.02013C18.0403 8.70611 18.5538 8.70677 18.8704 9.02293C19.0227 9.17462 19.1066 9.37783 19.1066 9.59516C19.1066 9.81242 19.0227 10.0156 18.8692 10.1685L18.3855 10.6532C18.3854 10.6532 18.3854 10.6533 18.3853 10.6534L17.8315 11.205C17.6152 11.4204 17.6145 11.7703 17.8299 11.9866C18.0453 12.2028 18.3952 12.2035 18.6115 11.9882L19.1679 11.434C19.3199 11.2817 19.5237 11.1978 19.7417 11.1978C19.9597 11.1978 20.1635 11.2817 20.3167 11.4351C20.469 11.5869 20.5529 11.7901 20.5529 12.0074C20.5529 12.2247 20.469 12.4279 20.3158 12.5805L19.3516 13.5451C19.1358 13.761 19.1359 14.1109 19.3517 14.3267C19.4597 14.4346 19.601 14.4885 19.7424 14.4885C19.8839 14.4885 20.0254 14.4345 20.1333 14.3265L20.6059 13.8538C20.6085 13.8512 20.6115 13.8489 20.6141 13.8463C20.7662 13.6939 20.97 13.6101 21.188 13.6101C21.406 13.6101 21.6098 13.6939 21.7624 13.8468C22.0781 14.1622 22.0778 14.6764 21.7624 14.9924L21.2819 15.4723C21.2817 15.4725 21.2815 15.4727 21.2814 15.4728C21.2812 15.473 21.281 15.4732 21.2809 15.4734L20.5183 16.235C20.3023 16.4508 20.3021 16.8007 20.5178 17.0167C20.6257 17.1247 20.7673 17.1788 20.9088 17.1788C21.0502 17.1788 21.1915 17.1249 21.2994 17.0172L21.6724 16.6446L23.4602 18.4303L18.3699 23.5144L16.5461 21.6928C16.6732 21.611 16.7949 21.5149 16.9091 21.4006L17.4005 20.9098C17.6166 20.6942 17.6168 20.3442 17.4011 20.1283ZM26.6799 20.8127L20.7562 26.7292C20.6177 26.8677 20.4322 26.9439 20.2339 26.9439C20.0357 26.9439 19.8502 26.8677 19.7116 26.7292L18.7349 25.7537C18.5965 25.6155 18.5203 25.4306 18.5203 25.233C18.5203 25.0354 18.5965 24.8505 18.7349 24.7122L24.6586 18.7957C24.7973 18.6572 24.9827 18.581 25.181 18.581C25.3792 18.581 25.5647 18.6572 25.7036 18.796L26.68 19.7696C26.8184 19.9079 26.8946 20.093 26.8946 20.2912C26.8946 20.4893 26.8183 20.6745 26.6799 20.8127Z" fill="#9099A6"/>
<path d="M6.61177 3.10451C6.71966 3.21218 6.86092 3.26597 7.00218 3.26597C7.14376 3.26597 7.28541 3.21186 7.39335 3.10369C7.60897 2.88763 7.60865 2.53772 7.39259 2.3221L5.37863 0.312151C5.16263 0.096531 4.81266 0.0968054 4.59704 0.312919C4.38142 0.528979 4.38175 0.878888 4.59781 1.09451L6.61177 3.10451Z" fill="#9099A6"/>
<path d="M20.8994 3.26595C21.0407 3.26595 21.182 3.21205 21.2899 3.10433L23.3023 1.09432C23.5183 0.878648 23.5185 0.528684 23.3028 0.312734C23.0871 0.0967847 22.7372 0.0965652 22.5212 0.312295L20.5088 2.3223C20.2928 2.53797 20.2926 2.88794 20.5083 3.10389C20.6163 3.21194 20.7578 3.26595 20.8994 3.26595Z" fill="#9099A6"/>
<path d="M3.39879 23.7739C3.18481 23.9915 3.18778 24.3415 3.40548 24.5555L3.40707 24.557C3.51447 24.6626 3.65392 24.7152 3.79331 24.7152C3.93638 24.7152 4.07945 24.6598 4.18784 24.5495C4.40181 24.3319 4.39803 23.9811 4.18038 23.7672C3.96278 23.5532 3.61287 23.5562 3.39879 23.7739Z" fill="#9099A6"/>
<path d="M18.7533 19.3321C18.8374 19.3321 18.9227 19.3129 19.0027 19.2726C19.2753 19.1351 19.3847 18.8028 19.2473 18.5302C19.1099 18.2577 18.7775 18.1482 18.505 18.2857L18.5019 18.2872C18.2294 18.4247 18.1214 18.7562 18.2588 19.0288C18.3559 19.2213 18.551 19.3321 18.7533 19.3321Z" fill="#9099A6"/>
</svg>
