<svg width="28" height="32" viewBox="0 0 28 32" fill="none" xmlns="http://www.w3.org/2000/svg">
<path d="M27.6818 23.605C27.1306 22.795 26.1971 22.5963 25.1836 23.073L18.1177 26.1842L18.1179 26.1626C18.1181 26.1456 18.1174 26.1284 18.1157 26.1114C17.9921 24.8685 17.042 23.8781 15.8052 23.7032C15.8013 23.7026 15.7974 23.7021 15.7934 23.7017L11.0954 23.1607C10.1031 23.0193 9.61466 22.6874 8.69535 22.1493C7.33487 21.3535 5.78261 20.9328 4.20641 20.9328H3.91349V20.4574C3.91349 19.7577 3.34423 19.1884 2.64442 19.1884H1.269C0.56926 19.1884 0 19.7577 0 20.4574V29.2416C0 29.9414 0.56926 30.5107 1.269 30.5107H2.64448C3.31925 30.5107 3.87112 29.9809 3.90975 29.3157L8.50835 31.0274C9.08379 31.2415 9.68685 31.3501 10.3006 31.3501H16.6372C17.6086 31.3501 18.5557 31.0764 19.3772 30.5585L27.3012 26.088C27.856 25.7747 28.3418 24.575 27.6818 23.605ZM26.8029 25.3146L18.9158 29.7643C18.909 29.7681 18.9023 29.7722 18.8956 29.7763C18.2192 30.205 17.4382 30.4316 16.6372 30.4316H10.3006C9.79658 30.4316 9.30128 30.3425 8.82871 30.1666L3.91349 28.3371V25.0053C3.91349 24.7516 3.70788 24.546 3.45426 24.546C3.20064 24.546 2.99503 24.7516 2.99503 25.0053V29.2417C2.99503 29.435 2.83779 29.5923 2.64442 29.5923H1.269C1.0757 29.5923 0.918458 29.435 0.918458 29.2417V20.4575C0.918458 20.2642 1.0757 20.1069 1.269 20.1069H2.64448C2.83779 20.1069 2.99509 20.2641 2.99509 20.4575V22.8577C2.99509 23.1114 3.2007 23.3169 3.45432 23.3169C3.70794 23.3169 3.91355 23.1114 3.91355 22.8577V21.8513H4.20654C5.61992 21.8513 7.01175 22.2285 8.23171 22.9421C9.20638 23.5118 9.79848 23.9048 10.9726 24.0709C10.9765 24.0715 10.9804 24.072 10.9844 24.0725L15.6822 24.6134C16.4879 24.7298 17.1081 25.3709 17.1993 26.1782L17.1961 26.4328C14.4668 26.4012 13.4285 26.5238 11.682 26.2689L10.8688 26.1501C10.618 26.1137 10.3846 26.2872 10.348 26.5382C10.3114 26.7891 10.4851 27.0223 10.7361 27.0589L11.5493 27.1777C13.4047 27.4487 14.4748 27.3164 17.6497 27.3513C17.7133 27.3513 17.7802 27.3365 17.8347 27.3124L25.5593 23.9112C25.5631 23.9095 25.5668 23.9078 25.5705 23.906C25.9865 23.7094 26.5588 23.5871 26.9226 24.1216C27.1773 24.4962 27.1241 25.0011 26.8029 25.3146Z" fill="#9099A6"/>
<path d="M5.68776 10.6255C6.05833 10.9237 6.19187 11.4222 6.02012 11.8659C5.55703 13.0616 6.31874 14.3766 7.58309 14.5731C7.89255 14.6212 8.15572 14.7962 8.32079 15.044L6.17038 19.2138C6.0413 19.4641 6.0688 19.7576 6.24214 19.9796C6.41548 20.2015 6.69341 20.2991 6.96766 20.2347L9.31322 19.6823L10.223 21.9136C10.3294 22.1744 10.5703 22.3442 10.8517 22.3567C10.8628 22.3572 10.8738 22.3575 10.8848 22.3575C11.153 22.3575 11.3932 22.2117 11.5172 21.9712L13.5299 18.0686C13.8416 18.1435 14.1618 18.1436 14.474 18.0686L16.4867 21.9712C16.6107 22.2117 16.8509 22.3575 17.1191 22.3575C17.1301 22.3575 17.1411 22.3572 17.1522 22.3567C17.4335 22.3442 17.6744 22.1744 17.7808 21.9136L18.6907 19.6823L21.0362 20.2347C21.3105 20.2993 21.5884 20.2016 21.7618 19.9796C21.9351 19.7576 21.9626 19.4641 21.8335 19.2138L19.6831 15.044C19.8482 14.7962 20.1113 14.6212 20.4207 14.5731C21.6877 14.3762 22.4458 13.0591 21.9838 11.8659C21.812 11.4222 21.9455 10.9237 22.3161 10.6255C23.3142 9.82205 23.3138 8.30249 22.3161 7.49939C21.9456 7.20114 21.812 6.7026 21.9838 6.25899C22.4467 5.06328 21.6851 3.74829 20.4208 3.5518C19.9507 3.47875 19.5857 3.11382 19.5127 2.64375C19.3158 1.37677 17.9987 0.618612 16.8055 1.08072C16.3617 1.25253 15.8634 1.11893 15.565 0.74836C14.761 -0.250555 13.2413 -0.248351 12.439 0.74836C12.1407 1.11893 11.6423 1.25241 11.1986 1.08072C10.003 0.617694 8.68787 1.3794 8.49144 2.64375C8.4184 3.11382 8.05346 3.47875 7.5834 3.5518C6.31641 3.74872 5.55838 5.06572 6.02036 6.25899C6.19218 6.7026 6.05863 7.20114 5.688 7.49939C4.68903 8.30347 4.69093 9.82309 5.68776 10.6255ZM10.9052 21.154L10.0973 19.1727C9.96392 18.8457 9.6176 18.6669 9.27354 18.748L7.19103 19.2385L8.75394 16.2079C9.2466 17.0277 10.272 17.403 11.1984 17.0441C11.6419 16.8721 12.1405 17.0059 12.4389 17.3765C12.5211 17.4787 12.6124 17.5708 12.7104 17.6536L10.9052 21.154ZM18.73 18.748C18.3862 18.6674 18.0398 18.8457 17.9063 19.1728L17.0985 21.154L15.2932 17.6536C15.3913 17.5709 15.4826 17.4787 15.5648 17.3765C15.8632 17.006 16.3617 16.8726 16.8052 17.0441C17.7318 17.4029 18.7571 17.0276 19.2496 16.2079L20.8126 19.2385L18.73 18.748ZM6.26363 8.21493C6.94709 7.66484 7.19342 6.74552 6.87661 5.92742C6.6255 5.27905 7.0385 4.56596 7.72416 4.45942C8.59107 4.32471 9.26405 3.65173 9.39876 2.78476C9.50548 2.098 10.2196 1.68647 10.8668 1.93721C11.685 2.25402 12.6042 2.00775 13.1543 1.32429C13.5903 0.782588 14.4143 0.783751 14.8494 1.32429C15.3994 2.00763 16.3187 2.25396 17.1369 1.93721C17.7851 1.68611 18.4983 2.09911 18.6049 2.78476C18.7396 3.65167 19.4126 4.32465 20.2795 4.45942C20.9666 4.56614 21.3777 5.28034 21.127 5.92742C20.8102 6.74552 21.0566 7.66484 21.74 8.21493C22.2815 8.65083 22.2805 9.47493 21.74 9.90998C21.0565 10.4601 20.8102 11.3794 21.127 12.1975C21.3781 12.8459 20.9651 13.559 20.2795 13.6656C19.4126 13.8003 18.7396 14.4732 18.6049 15.3402C18.4983 16.0261 17.7853 16.4386 17.1369 16.1877C16.3188 15.8711 15.3995 16.1173 14.8494 16.8007C14.4135 17.3423 13.5894 17.3412 13.1543 16.8007C12.6051 16.1184 11.6861 15.8705 10.8667 16.1877C10.2186 16.4389 9.5053 16.0259 9.39876 15.3402C9.26405 14.4733 8.59107 13.8003 7.7241 13.6656C7.0371 13.5588 6.62599 12.8446 6.87661 12.1975C7.19342 11.3794 6.94709 10.4601 6.26363 9.90998C5.72205 9.47402 5.72321 8.64991 6.26363 8.21493Z" fill="#9099A6"/>
<path d="M8.21374 9.68444C7.96447 9.7311 7.80013 9.971 7.84678 10.2203C8.39994 13.1776 10.9883 15.3241 14.0014 15.3241C17.4541 15.3241 20.263 12.5151 20.263 9.06246C20.263 5.60979 17.4541 2.80084 14.0014 2.80084C10.9888 2.80084 8.40043 4.94691 7.84691 7.90367C7.80025 8.15294 7.96447 8.39284 8.2138 8.43956C8.46331 8.4861 8.70303 8.32194 8.74969 8.07267C9.2219 5.55022 11.4305 3.7193 14.0014 3.7193C16.9477 3.7193 19.3446 6.11623 19.3446 9.06246C19.3446 12.0087 16.9477 14.4056 14.0014 14.4056C11.4302 14.4056 9.22147 12.5745 8.74957 10.0515C8.70297 9.80212 8.46313 9.63833 8.21374 9.68444Z" fill="#9099A6"/>
<path d="M17.3829 7.35566L15.3403 7.26517L14.623 5.35043C14.4079 4.77627 13.5947 4.77639 13.3796 5.35049L12.6624 7.26523L10.6198 7.35573C10.008 7.38273 9.75526 8.1557 10.2355 8.53827L11.8349 9.81211L11.2898 11.7828C11.1263 12.3738 11.7841 12.8516 12.2957 12.5137L14.0013 11.3862L15.7071 12.5137C16.2168 12.8504 16.877 12.3758 16.713 11.7828L16.1679 9.81211L17.7672 8.53827C18.247 8.15601 17.9952 7.38267 17.3829 7.35566ZM15.464 9.19846C15.2555 9.36458 15.1667 9.63791 15.2378 9.89477L15.6466 11.3726L14.3674 10.527C14.3674 10.527 14.3674 10.527 14.3673 10.527C14.2562 10.4536 14.1288 10.4168 14.0013 10.4168C13.8739 10.4168 13.7464 10.4536 13.6352 10.527L12.356 11.3726L12.7649 9.89483C12.836 9.63791 12.7472 9.36458 12.5386 9.19846L11.3392 8.24314L12.8712 8.1753C13.1374 8.16348 13.3699 7.99454 13.4634 7.74497L14.0013 6.30911L14.5392 7.74503C14.6327 7.99454 14.8652 8.16348 15.1315 8.1753L16.6633 8.24314L15.464 9.19846Z" fill="#9099A6"/>
</svg>
