<svg width="28" height="28" viewBox="0 0 28 28" fill="none" xmlns="http://www.w3.org/2000/svg">
<path d="M17.2667 16.3333H16.7533C16.5602 16.3337 16.3875 16.2132 16.3212 16.0318C16.2642 15.8825 16.2031 15.7364 16.1373 15.5918C16.0555 15.4158 16.0929 15.2075 16.2306 15.071L16.5965 14.7046C17.1397 14.1567 17.1387 13.2731 16.5942 12.7264L15.2754 11.4076C14.728 10.8635 13.8441 10.8635 13.2967 11.4076L12.9309 11.773C12.794 11.9103 12.586 11.9476 12.4101 11.8664C12.2654 11.8006 12.1193 11.7394 11.9695 11.6797C11.7872 11.6139 11.666 11.4405 11.6667 11.2466V10.7333C11.6667 9.9601 11.0399 9.33331 10.2667 9.33331H8.39999C7.62678 9.33331 6.99999 9.9601 6.99999 10.7333V11.2466C7.00034 11.4397 6.87989 11.6125 6.69853 11.6788C6.54919 11.7357 6.40313 11.7968 6.25846 11.8626C6.08247 11.944 5.87445 11.9067 5.73766 11.7693L5.37133 11.4034C4.82405 10.8597 3.94041 10.8597 3.39313 11.4034L2.07433 12.7264C1.5302 13.2738 1.5302 14.1578 2.07433 14.7051L2.43973 15.071C2.57751 15.2075 2.61485 15.4158 2.53306 15.5918C2.46726 15.7364 2.40613 15.8825 2.34873 16.0323C2.28194 16.2147 2.10758 16.3353 1.91333 16.3333H1.4C0.626791 16.3333 0 16.9601 0 17.7333V19.6C0 20.3732 0.626791 21 1.4 21H1.91333C2.10641 20.9996 2.27914 21.1201 2.34546 21.3014C2.4024 21.4508 2.46353 21.5968 2.52933 21.7415C2.61111 21.9174 2.57378 22.1257 2.436 22.2623L2.07013 22.6286C1.52635 23.1759 1.52635 24.0595 2.07013 24.6068L3.38893 25.9256C3.93627 26.4698 4.82025 26.4698 5.36759 25.9256L5.73346 25.5602C5.87031 25.423 6.07827 25.3857 6.25426 25.4669C6.39893 25.5327 6.54499 25.5938 6.69479 25.6536C6.87802 25.7187 7.00034 25.8922 6.99999 26.0866V26.6C6.99999 27.3732 7.62678 28 8.39999 28H10.2667C11.0399 28 11.6667 27.3732 11.6667 26.6V26.0866C11.6663 25.8935 11.7868 25.7208 11.9681 25.6545C12.1175 25.5976 12.2635 25.5364 12.4082 25.4706C12.5842 25.3893 12.7922 25.4265 12.929 25.564L13.2953 25.9298C13.8434 26.4727 14.7268 26.4717 15.2735 25.9275L16.5923 24.6087C17.1364 24.0614 17.1364 23.1774 16.5923 22.63L16.2269 22.2642C16.0891 22.1276 16.0518 21.9193 16.1336 21.7434C16.1994 21.5987 16.2605 21.4526 16.3203 21.3028C16.3861 21.1205 16.5595 20.9993 16.7533 21H17.2667C18.0399 21 18.6666 20.3732 18.6666 19.6V17.7333C18.6666 16.9601 18.0399 16.3333 17.2667 16.3333ZM17.7333 19.6C17.7333 19.8577 17.5244 20.0666 17.2667 20.0666H16.7533C16.1732 20.0688 15.654 20.4274 15.4467 20.9692C15.3972 21.0998 15.3437 21.2285 15.2861 21.3551C15.0462 21.8848 15.1575 22.5075 15.5661 22.9212L15.9311 23.2866C16.1134 23.4688 16.1136 23.7643 15.9314 23.9466C15.9313 23.9467 15.9312 23.9468 15.9311 23.947L14.6123 25.2658C14.43 25.4479 14.1346 25.4479 13.9524 25.2658L13.5865 24.9004C13.173 24.4914 12.55 24.38 12.0204 24.6204C11.8939 24.6778 11.7651 24.7314 11.6354 24.7809C11.094 24.9882 10.7357 25.5069 10.7333 26.0866V26.6C10.7333 26.8577 10.5244 27.0666 10.2667 27.0666H8.39999C8.14228 27.0666 7.93333 26.8577 7.93333 26.6V26.0866C7.93117 25.5065 7.57259 24.9873 7.03079 24.78C6.90013 24.7305 6.7715 24.677 6.64486 24.6194C6.11519 24.3796 5.49249 24.491 5.07873 24.8994L4.71333 25.2644C4.53121 25.4467 4.2357 25.4469 4.05335 25.2647C4.05323 25.2646 4.05311 25.2645 4.053 25.2644L2.7342 23.947C2.55202 23.7647 2.55202 23.4693 2.7342 23.2871L3.0996 22.9212C3.50822 22.5075 3.61952 21.8848 3.3796 21.3551C3.3222 21.2286 3.26853 21.0998 3.21906 20.9701C3.01221 20.4281 2.4934 20.0692 1.91333 20.0666H1.4C1.14228 20.0666 0.933332 19.8577 0.933332 19.6V17.7333C0.933332 17.4756 1.14228 17.2666 1.4 17.2666H1.91333C2.49346 17.2645 3.01262 16.9059 3.22 16.3641C3.26946 16.2334 3.32296 16.1048 3.38053 15.9782C3.62045 15.4485 3.5091 14.8257 3.10053 14.412L2.73373 14.0466C2.55138 13.8645 2.55121 13.569 2.73338 13.3867C2.7335 13.3865 2.73361 13.3864 2.73373 13.3863L4.05253 12.0675C4.23476 11.8853 4.53016 11.8853 4.7124 12.0675L5.07826 12.4329C5.49179 12.8419 6.11479 12.9532 6.64439 12.7129C6.77086 12.6555 6.89966 12.6018 7.02939 12.5524C7.57154 12.3457 7.9307 11.8268 7.93333 11.2466V10.7333C7.93333 10.4756 8.14228 10.2666 8.39999 10.2666H10.2667C10.5244 10.2666 10.7333 10.4756 10.7333 10.7333V11.2466C10.7355 11.8268 11.0941 12.3459 11.6359 12.5533C11.7665 12.6028 11.8951 12.6563 12.0218 12.7138C12.5514 12.9542 13.1744 12.8428 13.5879 12.4338L13.9533 12.0689C14.1363 11.888 14.4307 11.888 14.6137 12.0689L15.9325 13.3877C16.1146 13.5699 16.1146 13.8653 15.9325 14.0476L15.5671 14.4134C15.1585 14.8271 15.0471 15.4499 15.2871 15.9796C15.3445 16.106 15.3981 16.2348 15.4476 16.3646C15.6549 16.906 16.1736 17.2643 16.7533 17.2666H17.2667C17.5244 17.2666 17.7333 17.4756 17.7333 17.7333V19.6Z" fill="#9099A6"/>
<path d="M13.5239 18.48C13.5193 18.368 13.5113 18.2565 13.4978 18.1454C13.4829 18.0259 13.4651 17.9074 13.4404 17.7912C13.4241 17.7151 13.4026 17.64 13.3821 17.5644C13.3559 17.4683 13.3265 17.3735 13.2939 17.2802C13.271 17.2153 13.2472 17.1509 13.2229 17.087C13.1629 16.9376 13.0941 16.7917 13.0171 16.6502C13.0111 16.6395 13.0073 16.6278 13.0013 16.6171C12.8799 16.401 12.7393 16.1962 12.5813 16.0053C12.5677 15.9885 12.5523 15.9726 12.5383 15.9563C12.4739 15.8802 12.4077 15.8065 12.3381 15.736C12.3017 15.6982 12.2635 15.6627 12.2252 15.6263C12.1785 15.5829 12.1319 15.54 12.0852 15.4989C12.0286 15.4498 11.9709 15.4022 11.9121 15.3561L11.8355 15.2992C11.1134 14.7583 10.2355 14.4662 9.33328 14.4667C9.28661 14.4667 9.23994 14.4737 9.19328 14.4755C9.09388 14.4783 8.99401 14.4839 8.89368 14.4942C8.84094 14.4998 8.78774 14.5059 8.73501 14.5133C8.58288 14.5334 8.43191 14.5616 8.28281 14.5978C6.03575 15.1785 4.68487 17.4708 5.26552 19.7179C5.64819 21.1986 6.80505 22.3546 8.28608 22.736C8.29354 22.736 8.30148 22.7383 8.30941 22.7402C8.47058 22.7804 8.63386 22.8116 8.79848 22.8335C8.90721 22.8471 9.01594 22.8499 9.12514 22.855C9.19794 22.8587 9.26514 22.8695 9.34121 22.8695C9.47421 22.8695 9.61234 22.8606 9.75327 22.8466C9.76821 22.8466 9.78314 22.8424 9.79994 22.8405C9.91334 22.8279 10.0281 22.8111 10.1453 22.7878C10.1919 22.7789 10.2353 22.7673 10.2801 22.757C10.3623 22.7379 10.4439 22.7178 10.5279 22.6931C10.5933 22.6735 10.6567 22.6506 10.7207 22.6282C10.7846 22.6058 10.8509 22.5815 10.9171 22.5563C10.9834 22.5311 11.0389 22.5022 11.0991 22.4742C11.1775 22.4383 11.2555 22.4028 11.3325 22.3608H11.3353C11.7708 22.1276 12.1731 21.8371 12.5313 21.497C12.6281 21.4067 12.7123 21.3037 12.7815 21.1909C13.1457 20.607 13.385 19.9539 13.4843 19.2729C13.4973 19.1828 13.509 19.0927 13.516 19.0008C13.5225 18.9163 13.5272 18.8323 13.5291 18.7483C13.5291 18.7217 13.5328 18.6965 13.5328 18.6699C13.5333 18.6041 13.5267 18.5435 13.5239 18.48ZM12.5939 18.7857C12.5939 18.8244 12.5906 18.8631 12.5883 18.9014C12.5799 19.0143 12.5654 19.1273 12.5463 19.2407C12.3719 20.2109 11.7694 21.0509 10.9064 21.5273C10.8485 21.5577 10.7916 21.5861 10.7347 21.6123L10.6959 21.6309C10.4248 21.754 10.1386 21.8406 9.84474 21.8885C9.82421 21.8918 9.80321 21.8955 9.78221 21.8983C9.72388 21.9067 9.66647 21.9137 9.60954 21.9189C9.53441 21.9254 9.45881 21.9291 9.38181 21.9305C9.34914 21.9305 9.31694 21.9305 9.28428 21.9305C9.17385 21.9293 9.0636 21.9224 8.95388 21.91L8.89788 21.9035C8.76954 21.8867 8.64226 21.8627 8.51661 21.8316C6.76883 21.3842 5.71463 19.6047 6.16193 17.8569C6.4575 16.7021 7.35875 15.7999 8.51334 15.5031V15.5027C8.78144 15.4351 9.05678 15.4005 9.33328 15.4C9.46668 15.4008 9.59998 15.4098 9.73228 15.4271C9.76774 15.4313 9.80274 15.4378 9.83774 15.4429C9.93854 15.4588 10.0384 15.4789 10.1369 15.5041C10.1691 15.5125 10.2013 15.5199 10.233 15.5288C10.4812 15.6004 10.72 15.701 10.9447 15.8284C10.9806 15.8494 11.0156 15.8713 11.0511 15.8933C11.1248 15.9399 11.1962 15.9866 11.2667 16.0398C11.3045 16.0673 11.3427 16.0944 11.3791 16.1238C11.4707 16.197 11.5584 16.2748 11.6419 16.3571C11.675 16.3907 11.7053 16.4276 11.7375 16.4626C11.7912 16.5209 11.8435 16.5807 11.8934 16.6437C11.9279 16.6871 11.9611 16.7319 11.9937 16.7771C12.0404 16.8443 12.0871 16.9143 12.1291 16.9853C12.1524 17.024 12.1757 17.0618 12.1995 17.1015C12.2597 17.2122 12.3133 17.3265 12.3601 17.4435C12.3787 17.4902 12.3946 17.5369 12.4114 17.5835C12.4417 17.6694 12.4679 17.7562 12.4907 17.8439C12.5024 17.8906 12.5155 17.9321 12.5253 17.9774C12.5525 18.1035 12.5723 18.2312 12.5845 18.3596C12.5873 18.3937 12.5873 18.4282 12.5897 18.4623C12.5962 18.5696 12.5981 18.6774 12.5939 18.7857Z" fill="#9099A6"/>
<path d="M26.5996 9.79999H25.1319C24.9362 9.80197 24.7612 9.67872 24.697 9.49386C24.5523 9.06038 24.3771 8.63758 24.1729 8.22873C24.0862 8.05215 24.1223 7.83988 24.2625 7.70186L25.3032 6.65979C25.8494 6.11315 25.8494 5.2273 25.3032 4.68066L23.3189 2.69966C22.7723 2.15343 21.8864 2.15343 21.3398 2.69966L20.2996 3.7394C20.1617 3.87951 19.9498 3.9158 19.7732 3.82946C19.3643 3.62419 18.9414 3.44814 18.5076 3.3026C18.322 3.23907 18.1978 3.06384 18.1996 2.86766V1.4C18.1996 0.626791 17.5728 0 16.7996 0H13.9996C13.2264 0 12.5996 0.626791 12.5996 1.4V2.86766C12.6016 3.06337 12.4784 3.23843 12.2935 3.3026C11.8599 3.44808 11.4371 3.62401 11.0283 3.829C10.8518 3.91597 10.6394 3.87986 10.5015 3.7394L9.4594 2.69873C8.91212 2.15407 8.02755 2.15407 7.48027 2.69873L5.49974 4.67926C4.95321 5.22596 4.95321 6.11216 5.49974 6.65886L7.02994 8.19186C7.21503 8.37118 7.51048 8.36651 7.6898 8.18136C7.86474 8.00076 7.86515 7.71399 7.69074 7.53293L6.1596 6.00039C5.97743 5.81816 5.97743 5.52276 6.1596 5.34053L8.14013 3.36C8.32237 3.17782 8.61777 3.17782 8.8 3.36L9.84253 4.40066C10.2643 4.82498 10.9107 4.93103 11.446 4.66386C11.8157 4.47877 12.1979 4.31987 12.5898 4.18833C13.1555 3.99682 13.5354 3.46494 13.5329 2.86766V1.4C13.5329 1.14228 13.7419 0.933332 13.9996 0.933332H16.7996C17.0573 0.933332 17.2663 1.14228 17.2663 1.4V2.86766C17.2639 3.46482 17.6437 3.99653 18.2094 4.18786C18.6015 4.31946 18.9839 4.47848 19.3537 4.66386C19.8891 4.92963 20.5346 4.82346 20.9567 4.4002L21.9992 3.36C22.1814 3.17782 22.4768 3.17782 22.6591 3.36L24.6396 5.34099C24.8215 5.52317 24.8215 5.81822 24.6396 6.00039L23.5989 7.04293C23.175 7.46497 23.069 8.11101 23.3357 8.64639C23.5208 9.01605 23.6797 9.39825 23.8113 9.79019C24.0026 10.356 24.5346 10.7359 25.1319 10.7333H26.5996C26.8573 10.7333 27.0662 10.9423 27.0662 11.2V14C27.0662 14.2577 26.8573 14.4667 26.5996 14.4667H25.1319C24.5348 14.4643 24.0031 14.8441 23.8117 15.4098C23.6802 15.8019 23.5211 16.1843 23.3357 16.5541C23.0695 17.0894 23.1757 17.7351 23.5994 18.157L24.6401 19.1996C24.8222 19.3818 24.8222 19.6772 24.6401 19.8594L22.6586 21.84C22.4764 22.0219 22.1814 22.0219 21.9992 21.84L20.4657 20.3098C20.2864 20.1246 19.9909 20.12 19.8059 20.2993C19.6207 20.4786 19.616 20.7741 19.7954 20.9591C19.7991 20.963 19.8029 20.9668 19.8068 20.9706L21.3398 22.5008C21.8864 23.047 22.7723 23.047 23.3189 22.5008L25.2995 20.5207C25.846 19.974 25.846 19.0878 25.2995 18.5411L24.2602 17.5C24.1202 17.3621 24.084 17.1502 24.1701 16.9736C24.3754 16.5647 24.5514 16.1418 24.697 15.708C24.7605 15.5224 24.9357 15.3982 25.1319 15.4H26.5996C27.3728 15.4 27.9996 14.7732 27.9996 14V11.2C27.9996 10.4268 27.3728 9.79999 26.5996 9.79999Z" fill="#9099A6"/>
<path d="M19.6897 8.31039C17.3191 5.9448 13.481 5.9448 11.1105 8.31039C10.9314 8.49577 10.9366 8.79123 11.122 8.97025C11.3028 9.1449 11.5895 9.1449 11.7703 8.97025C13.7615 6.95215 17.0117 6.9304 19.0298 8.9216C21.0479 10.9128 21.0697 14.163 19.0784 16.1811C19.0623 16.1974 19.0461 16.2136 19.0298 16.2297C18.8444 16.4088 18.8393 16.7042 19.0184 16.8896C19.1974 17.075 19.4928 17.0801 19.6782 16.901C19.6821 16.8973 19.6859 16.8934 19.6897 16.8896C22.0553 14.519 22.0553 10.6809 19.6897 8.31039Z" fill="#9099A6"/>
</svg>
