<svg width="28" height="29" viewBox="0 0 28 29" fill="none" xmlns="http://www.w3.org/2000/svg">
<path d="M26.8247 12.5741C26.7796 10.3912 26.176 8.2518 25.0756 6.37246C25.9709 2.08944 21.4423 -1.39338 17.542 0.554201C13.8653 -0.54201 9.5906 0.0409044 6.21868 2.65136C5.79091 2.97937 6.30777 3.61665 6.71781 3.30236C7.75338 2.50835 8.90061 1.89279 10.1276 1.47262C11.4069 1.03458 12.7467 0.818834 14.1106 0.830428C14.9634 0.837865 15.8108 0.935537 16.6368 1.12104C16.3145 1.37112 16.0219 1.65747 15.7648 1.97389C9.38443 0.883858 3.31084 5.81771 3.01973 12.2283C2.68335 12.2119 2.33669 12.2353 2.01146 12.324C2.12472 9.6052 3.16121 6.97025 4.89601 5.02665C5.24918 4.63105 4.63717 4.08483 4.28405 4.48044C2.33472 6.66433 1.20788 9.65737 1.18125 12.7108C0.468125 13.2037 0 14.0269 0 14.9574V18.9208C0 20.6725 1.49155 21.6905 3.10756 21.6498C3.67937 23.3021 6.08989 22.9432 6.13091 21.1703V12.5671C6.14923 11.4715 4.95759 10.6929 3.96413 11.1456C4.79872 5.90816 9.84993 2.02256 15.2519 2.72951C14.0924 4.70903 14.4816 7.48956 16.1607 9.08518V10.1989C16.2154 10.5287 16.4054 10.6547 16.7305 10.5767L17.7289 10.1549C19.6121 11.0372 22.0656 10.5866 23.504 9.17634C23.7515 9.81586 23.9323 10.4754 24.0452 11.1497C23.0508 10.6897 21.8508 11.4659 21.8692 12.567V21.1702C21.8574 22.3368 23.1588 23.101 24.1682 22.5263C24.1661 22.8887 24.1595 23.251 24.1453 23.6098C24.0476 24.7849 23.1416 25.7716 21.986 25.9621C21.6188 25.9982 21.2001 26.0122 20.688 26.0049C20.5044 25.331 19.8871 24.8341 19.1558 24.8341H16.9778C14.872 24.921 14.8715 27.9225 16.9778 28.0096H19.1557C19.8918 28.0096 20.5125 27.5061 20.6915 26.8253C21.1543 26.8315 21.6443 26.8478 22.1039 26.774C23.6365 26.5288 24.8607 25.2223 24.9851 23.6673C24.9855 23.6619 24.9849 23.6564 24.9851 23.651C25.0136 22.9373 24.9921 22.2165 24.9851 21.509C26.5704 21.5859 28 20.4305 28 18.78V14.8166C28 13.8887 27.5345 13.0674 26.8247 12.5741ZM0.820312 18.9208V14.9574C0.820312 13.7617 1.87266 12.9837 3.00273 13.0487V20.8295C1.87206 20.8922 0.820312 20.1201 0.820312 18.9208ZM4.58128 11.8378C4.98345 11.8378 5.31059 12.165 5.31059 12.5671V21.1703C5.2704 22.1381 3.89178 22.1373 3.85197 21.1703V12.5671C3.85197 12.1649 4.17916 11.8378 4.58128 11.8378ZM19.1557 27.1893H16.9778C16.5547 27.1893 16.2104 26.8451 16.2104 26.4218C16.2104 25.9986 16.5546 25.6543 16.9778 25.6543H19.1557C20.1732 25.6963 20.1741 27.1471 19.1557 27.1893ZM25.9892 12.1834C25.6636 12.0945 25.3166 12.0712 24.9799 12.0875C24.8958 10.8458 24.6049 9.64091 24.1131 8.49915C24.3566 8.17704 24.5641 7.82644 24.7297 7.45325C25.4689 8.92276 25.899 10.5353 25.9892 12.1834ZM19.8814 9.7901C19.1926 9.7901 18.5317 9.63785 17.9172 9.33767C17.8046 9.28544 17.6914 9.28238 17.5775 9.32837L16.981 9.58037V8.90952C16.981 8.79479 16.933 8.6853 16.8486 8.60765C13.8621 5.86693 15.8235 0.827748 19.8814 0.82999C25.8257 1.07592 25.8244 9.54483 19.8814 9.7901ZM27.1797 18.78C27.1797 19.9886 26.1126 20.7575 24.9756 20.6887C24.9704 20.2479 24.9675 19.8072 24.9683 19.3664C24.9683 18.8361 24.148 18.8361 24.148 19.3664V21.1702C24.148 21.5724 23.8208 21.8996 23.4187 21.8996C23.0166 21.8996 22.6894 21.5724 22.6894 21.1702V12.5671C22.7283 11.6019 24.1071 11.5975 24.148 12.5671V17.1829C24.148 17.7132 24.9683 17.7132 24.9683 17.1829V12.9078C26.1081 12.8433 27.1797 13.5975 27.1797 14.8166V18.78Z" fill="#9099A6"/>
<path d="M17.7316 23.1057C18.0568 23.1837 18.2467 23.0578 18.3014 22.7279V21.3887C22.2308 17.5682 19.4891 10.8168 14.0002 10.8239C10.6042 10.8238 7.84124 13.5863 7.84124 16.9817C7.78918 21.3871 12.5396 24.4543 16.5293 22.5978L17.7316 23.1057ZM16.3404 21.7803C12.8721 23.5268 8.61392 20.8692 8.66161 16.9817C8.66156 14.0386 11.0565 11.6441 14.0002 11.6441C18.8353 11.6419 21.1717 17.6457 17.6136 20.9105C17.5291 20.9882 17.4811 21.0977 17.4811 21.2124V22.1094L16.6801 21.771C16.5709 21.7248 16.447 21.7282 16.3404 21.7803Z" fill="#9099A6"/>
<path d="M12.9027 15.0914H15.0968C15.6271 15.0914 15.6271 14.2711 15.0968 14.2711H12.9027C12.3723 14.2711 12.3723 15.0914 12.9027 15.0914Z" fill="#9099A6"/>
<path d="M15.0967 18.8721H12.9026C12.3723 18.8721 12.3723 19.6924 12.9026 19.6924H15.0967C15.627 19.6924 15.627 18.8721 15.0967 18.8721Z" fill="#9099A6"/>
<path d="M16.2706 16.5716H11.7288C11.1985 16.5716 11.1985 17.3919 11.7288 17.3919H16.2706C16.8009 17.3919 16.8009 16.5716 16.2706 16.5716Z" fill="#9099A6"/>
<path d="M19.9168 2.17988C18.948 2.16134 18.1289 2.96246 18.1289 3.93147C18.1289 4.46177 18.9492 4.46177 18.9492 3.93147C18.9492 3.42654 19.3937 2.98898 19.9003 3.00003C20.3859 3.00982 20.7861 3.39695 20.8112 3.88137C20.8386 4.40801 20.4089 4.86312 19.8809 4.86312C19.6544 4.86312 19.4707 5.04676 19.4707 5.27328V6.67634C19.4707 6.90286 19.6544 7.0865 19.8809 7.0865C20.1074 7.0865 20.291 6.90286 20.291 6.67634V5.63422C21.1012 5.43772 21.6736 4.67194 21.6304 3.83883C21.5831 2.92702 20.8304 2.19831 19.9168 2.17988Z" fill="#9099A6"/>
<path d="M19.8816 7.67438C19.3537 7.67438 19.3528 8.49469 19.8816 8.49469C20.4094 8.49469 20.4102 7.67438 19.8816 7.67438Z" fill="#9099A6"/>
</svg>
