<svg width="28" height="28" viewBox="0 0 28 28" fill="none" xmlns="http://www.w3.org/2000/svg">
<path d="M25.3367 5.73672L25.9966 6.39659L27.8633 4.52992C27.9508 4.44241 27.9999 4.32373 27.9999 4.19999C27.9999 4.07624 27.9508 3.95757 27.8633 3.87005L25.9966 2.00339L25.3367 2.66325L26.4068 3.73332H21V4.66665H26.4068L25.3367 5.73672Z" fill="#9099A6"/>
<path d="M22.5365 10.1299L23.1964 9.47006L22.1263 8.39999H27.5331V7.46666H22.1263L23.1964 6.39659L22.5365 5.73672L20.6698 7.60339C20.5823 7.6909 20.5332 7.80958 20.5332 7.93332C20.5332 8.05707 20.5823 8.17575 20.6698 8.26326L22.5365 10.1299Z" fill="#9099A6"/>
<path d="M27.454 13.6127C27.1232 13.2808 26.6791 13.0863 26.2109 13.0681C25.7427 13.0499 25.2849 13.2094 24.9293 13.5147C24.7661 13.2363 24.533 13.0055 24.253 12.845C23.9731 12.6846 23.656 12.6001 23.3333 12.6C23.1246 12.5971 22.9172 12.6335 22.722 12.7073C22.5057 12.7837 22.3061 12.901 22.134 13.0527C21.9698 12.7738 21.7359 12.5425 21.4553 12.3813C21.1746 12.2201 20.8569 12.1347 20.5333 12.1333C20.2049 12.1343 19.8827 12.2229 19.6 12.39V4.66667C19.6 4.1716 19.4033 3.6968 19.0533 3.34673C18.7032 2.99667 18.2284 2.8 17.7333 2.8C17.4049 2.80095 17.0827 2.88956 16.8 3.05667V1.4C16.7989 1.02904 16.651 0.673586 16.3887 0.411274C16.1264 0.148963 15.771 0.00110791 15.4 0H4.2C3.82904 0.00110791 3.47359 0.148963 3.21127 0.411274C2.94896 0.673586 2.80111 1.02904 2.8 1.4V10.7333H2.33333C1.71449 10.7333 1.121 10.9792 0.683417 11.4168C0.245833 11.8543 0 12.4478 0 13.0667V14.9753L0.933333 24.7567V27.5333C0.933333 27.6571 0.9825 27.7758 1.07002 27.8633C1.15753 27.9508 1.27623 28 1.4 28H11.6667C11.7904 28 11.9091 27.9508 11.9967 27.8633C12.0842 27.7758 12.1333 27.6571 12.1333 27.5333V24.8827L13.8693 22.4H14.8727L15.4 23.8793V27.5333C15.4 27.6571 15.4492 27.7758 15.5367 27.8633C15.6242 27.9508 15.7429 28 15.8667 28H25.2C25.3238 28 25.4425 27.9508 25.53 27.8633C25.6175 27.7758 25.6667 27.6571 25.6667 27.5333V23.8793L27.8087 17.878C27.9347 17.5261 27.9994 17.1551 28 16.7813V14.9333C28.0002 14.6881 27.9521 14.4453 27.8584 14.2187C27.7647 13.9921 27.6273 13.7861 27.454 13.6127ZM11.2 27.0667H1.86667V25.2H11.2V27.0667ZM11.424 24.2667H1.82467L0.933333 14.9333V13.0667C0.934441 12.6957 1.0823 12.3403 1.34461 12.0779C1.60692 11.8156 1.96237 11.6678 2.33333 11.6667H5.6C5.9713 11.6667 6.3274 11.8142 6.58995 12.0767C6.8525 12.3393 7 12.6954 7 13.0667C7 13.438 6.8525 13.7941 6.58995 14.0566C6.3274 14.3192 5.9713 14.4667 5.6 14.4667H3.26667C3.1429 14.4667 3.0242 14.5158 2.93668 14.6033C2.84917 14.6909 2.8 14.8096 2.8 14.9333V21C2.80111 21.371 2.94896 21.7264 3.21127 21.9887C3.47359 22.251 3.82904 22.3989 4.2 22.4H12.7307L11.424 24.2667ZM4.2 21.4667C4.07623 21.4667 3.95753 21.4175 3.87002 21.33C3.7825 21.2425 3.73333 21.1238 3.73333 21V19.6H12.1333V18.6667H3.73333V15.4H5.6C6.21884 15.4 6.81233 15.1542 7.24992 14.7166C7.6875 14.279 7.93333 13.6855 7.93333 13.0667C7.93333 12.4478 7.6875 11.8543 7.24992 11.4168C6.81233 10.9792 6.21884 10.7333 5.6 10.7333H3.73333V1.4C3.73333 1.27623 3.7825 1.15753 3.87002 1.07002C3.95753 0.9825 4.07623 0.933333 4.2 0.933333H15.4C15.5238 0.933333 15.6425 0.9825 15.73 1.07002C15.8175 1.15753 15.8667 1.27623 15.8667 1.4V10.9947C15.5833 10.8246 15.2592 10.7343 14.9287 10.7333C14.4352 10.7346 13.9623 10.9311 13.6134 11.2801C13.2645 11.629 13.0679 12.1019 13.0667 12.5953V16.7813C13.0676 17.1566 13.1323 17.529 13.258 17.8827L14.5367 21.4667H4.2ZM17.7333 27.0667H16.3333V24.2667H17.7333V27.0667ZM20.0667 27.0667H18.6667V24.2667H20.0667V27.0667ZM22.4 27.0667H21V24.2667H22.4V27.0667ZM24.7333 27.0667H23.3333V24.2667H24.7333V27.0667ZM27.0667 16.7813C27.0661 17.0484 27.0203 17.3135 26.9313 17.5653L24.8733 23.3333H16.1933L14.1353 17.57C14.0467 17.3165 14.0009 17.0499 14 16.7813V12.5953C14.0006 12.3478 14.0995 12.1106 14.275 11.9361C14.4505 11.7615 14.6881 11.6637 14.9357 11.6643C15.1832 11.665 15.4204 11.7639 15.5949 11.9394C15.7695 12.1148 15.8673 12.3525 15.8667 12.6V16.3333H16.8V4.66667C16.8018 4.4197 16.9008 4.18336 17.0754 4.00872C17.25 3.83409 17.4864 3.73517 17.7333 3.73333C17.9806 3.73407 18.2176 3.83264 18.3925 4.00752C18.5674 4.18239 18.6659 4.41936 18.6667 4.66667V16.3333H19.6V14C19.6018 13.753 19.7008 13.5167 19.8754 13.3421C20.05 13.1674 20.2864 13.0685 20.5333 13.0667C20.7806 13.0674 21.0176 13.166 21.1925 13.3408C21.3674 13.5157 21.4659 13.7527 21.4667 14V16.3333H22.4V14.4667C22.4001 14.3442 22.4245 14.223 22.4717 14.1101C22.519 13.9971 22.5882 13.8947 22.6753 13.8087C22.774 13.7045 22.8977 13.6274 23.0347 13.5847C23.1305 13.5503 23.2315 13.5329 23.3333 13.5333C23.5806 13.5341 23.8176 13.6326 23.9925 13.8075C24.1674 13.9824 24.2659 14.2194 24.2667 14.4667V16.8H25.2V14.9333C25.2007 14.686 25.2993 14.4491 25.4742 14.2742C25.6491 14.0993 25.886 14.0007 26.1333 14C26.3803 14.0018 26.6166 14.1008 26.7913 14.2754C26.9659 14.45 27.0648 14.6864 27.0667 14.9333V16.7813Z" fill="#9099A6"/>
<path d="M9.80046 1.86667C8.87748 1.86667 7.97523 2.14036 7.2078 2.65314C6.44037 3.16592 5.84223 3.89476 5.48902 4.74748C5.13581 5.6002 5.0434 6.53851 5.22346 7.44376C5.40352 8.349 5.84798 9.18052 6.50063 9.83317C7.15327 10.4858 7.98479 10.9303 8.89004 11.1103C9.79528 11.2904 10.7336 11.198 11.5863 10.8448C12.439 10.4916 13.1679 9.89343 13.6806 9.126C14.1934 8.35857 14.4671 7.45632 14.4671 6.53334C14.4651 5.29626 13.9729 4.11043 13.0981 3.23568C12.2234 2.36094 11.0375 1.86864 9.80046 1.86667ZM9.80046 10.2667C9.06207 10.2667 8.34027 10.0477 7.72633 9.63749C7.11239 9.22726 6.63387 8.6442 6.35131 7.96202C6.06874 7.27984 5.99481 6.52919 6.13886 5.805C6.28291 5.0808 6.63848 4.41559 7.16059 3.89347C7.68271 3.37135 8.34793 3.01579 9.07212 2.87174C9.79632 2.72769 10.547 2.80162 11.2291 3.08419C11.9113 3.36675 12.4944 3.84526 12.9046 4.45921C13.3148 5.07315 13.5338 5.79495 13.5338 6.53334C13.5324 7.52306 13.1387 8.47186 12.4388 9.1717C11.739 9.87154 10.7902 10.2653 9.80046 10.2667Z" fill="#9099A6"/>
<path d="M11.2004 7.46667C11.1989 7.75535 11.1085 8.03656 10.9415 8.27203C10.7745 8.50751 10.539 8.68581 10.2671 8.78267V9.33334H9.33372V8.78267C9.06178 8.68581 8.82628 8.50751 8.65928 8.27203C8.49227 8.03656 8.40188 7.75535 8.40039 7.46667H9.33372C9.33372 7.55897 9.36109 7.64919 9.41237 7.72594C9.46365 7.80268 9.53653 7.86249 9.62181 7.89781C9.70708 7.93314 9.80091 7.94238 9.89143 7.92437C9.98196 7.90636 10.0651 7.86192 10.1304 7.79665C10.1956 7.73139 10.2401 7.64824 10.2581 7.55771C10.2761 7.46719 10.2669 7.37336 10.2315 7.28809C10.1962 7.20281 10.1364 7.12993 10.0597 7.07865C9.98291 7.02737 9.89269 7 9.80039 7C9.47207 6.99746 9.15509 6.8796 8.90486 6.66703C8.65463 6.45446 8.48707 6.16071 8.43147 5.83712C8.37587 5.51353 8.43577 5.1807 8.6007 4.8968C8.76562 4.6129 9.02508 4.39599 9.33372 4.284V3.73334H10.2671V4.284C10.539 4.38087 10.7745 4.55917 10.9415 4.79464C11.1085 5.03011 11.1989 5.31133 11.2004 5.6H10.2671C10.2671 5.50771 10.2397 5.41748 10.1884 5.34074C10.1371 5.26399 10.0642 5.20418 9.97898 5.16886C9.8937 5.13354 9.79987 5.1243 9.70935 5.1423C9.61882 5.16031 9.53567 5.20476 9.47041 5.27002C9.40514 5.33529 9.3607 5.41844 9.34269 5.50896C9.32468 5.59949 9.33393 5.69332 9.36925 5.77859C9.40457 5.86386 9.46438 5.93675 9.54112 5.98802C9.61787 6.0393 9.70809 6.06667 9.80039 6.06667C10.1714 6.06778 10.5268 6.21563 10.7891 6.47794C11.0514 6.74026 11.1993 7.09571 11.2004 7.46667Z" fill="#9099A6"/>
</svg>
