<svg width="73" height="75" viewBox="0 0 73 75" fill="none" xmlns="http://www.w3.org/2000/svg">
<path d="M70.2513 43.9298H69.1289V33.8201C69.1289 32.2197 68.3324 30.8026 67.1158 29.9415V28.565C67.1158 26.5683 65.4914 24.9439 63.4947 24.9439H62.6567L65.8631 20.2388C66.9378 18.6618 66.5291 16.5042 64.9521 15.4293L43.1946 0.60216C42.4307 0.0814081 41.5099 -0.11078 40.6011 0.0616327C39.6927 0.233752 38.9057 0.749231 38.3851 1.51329L19.6056 29.0704H14.3798L15.6406 16.3072C15.6548 16.1633 15.7482 16.0387 15.8786 15.9896C17.503 15.3772 18.9107 14.2334 19.8423 12.7692C19.9157 12.6539 20.0542 12.588 20.1974 12.6025L28.394 13.4122C28.9817 13.4692 29.5045 13.0412 29.5625 12.4538C29.6205 11.8664 29.1914 11.3433 28.604 11.2853L20.4075 10.4755C19.4561 10.3823 18.5487 10.8208 18.039 11.6217C17.354 12.6984 16.319 13.5392 15.1247 13.9895C14.2257 14.3285 13.6084 15.1359 13.5135 16.097L12.232 29.0702H10.8693L12.8632 8.8841C12.935 8.15753 13.5835 7.62375 14.3109 7.69655L30.8745 9.33278C31.4619 9.38947 31.985 8.96173 32.043 8.37433C32.101 7.78693 31.672 7.26383 31.0846 7.20583L14.521 5.56959C12.622 5.38224 10.9238 6.77458 10.7361 8.67389L9.12891 24.9439H6.39185C4.39527 24.9439 2.77075 26.5683 2.77075 28.565V29.504C1.13731 30.256 0 31.9072 0 33.8201V70.2501C0 72.8692 2.13076 75 4.75005 75H64.379C66.9982 75 69.1289 72.8692 69.1289 70.2501V60.1406H70.2513C71.5761 60.1406 72.6538 59.0629 72.6538 57.7383V46.3323C72.6539 45.0075 71.5761 43.9298 70.2513 43.9298ZM63.4947 27.0814C64.313 27.0813 64.9785 27.7469 64.9785 28.5652V29.1096C64.7819 29.0847 64.5822 29.0705 64.379 29.0705H59.8446L61.2 27.0814H63.4947ZM40.1512 2.71681C40.3505 2.42457 40.6515 2.22741 40.999 2.16149C41.082 2.14581 41.1654 2.1379 41.2481 2.1379C41.5113 2.1379 41.7686 2.21671 41.9909 2.36818L63.7484 17.1953C64.3516 17.6065 64.5081 18.4318 64.0971 19.035L57.2583 29.0701H55.6171L58.97 24.1501C59.5137 23.3522 59.5585 22.3368 59.0866 21.4999C58.4593 20.3881 58.205 19.079 58.3705 17.8135C58.4936 16.872 58.0793 15.953 57.2895 15.4148L46.0105 7.72848C45.2205 7.19015 44.2136 7.14079 43.3824 7.59972C42.2655 8.21642 40.954 8.45856 39.6898 8.28161C38.7523 8.15006 37.8015 8.5734 37.2658 9.35929L23.8333 29.0702H22.1921L40.1512 2.71681ZM40.6219 20.8649C35.9679 20.8649 32.1476 24.4938 31.8363 29.0702H26.4195L39.0317 10.563C39.0318 10.563 39.0318 10.563 39.0318 10.563C39.1034 10.4576 39.2222 10.3949 39.3443 10.3949C39.3605 10.3949 39.3768 10.3961 39.393 10.3983C41.1125 10.6388 42.8959 10.3098 44.4153 9.47091C44.5348 9.4047 44.6883 9.41423 44.8067 9.49479L56.0858 17.1813C56.2039 17.2618 56.2688 17.4013 56.2512 17.5366C56.0261 19.2577 56.3721 21.0381 57.225 22.5501C57.2934 22.6715 57.2851 22.8271 57.2039 22.9465L53.0309 29.0701H49.4079C49.0963 24.4938 45.2761 20.8649 40.6219 20.8649ZM47.2647 29.0704H33.9793C34.2854 25.6736 37.1468 23.0024 40.6219 23.0024C44.0971 23.0023 46.9587 25.6736 47.2647 29.0704ZM4.90811 28.565C4.90811 27.7468 5.57359 27.0811 6.39185 27.0811H8.91783L8.72139 29.0702H4.90811V28.565ZM2.13735 33.8201C2.13735 32.3796 3.30938 31.2076 4.75005 31.2076H64.379C65.8197 31.2076 66.9916 32.3796 66.9916 33.8201V36.7856H2.13735V33.8201ZM66.9916 70.2501C66.9916 71.6906 65.8197 72.8626 64.379 72.8626H4.75005C3.30938 72.8626 2.13735 71.6906 2.13735 70.2501V67.2847H7.90035C8.49068 67.2847 8.96895 66.8063 8.96895 66.2161C8.96895 65.6259 8.49053 65.1475 7.90035 65.1475H2.13735V38.9229H66.9916V43.9298H56.8305H56.8304C53.6288 43.9298 50.8556 45.796 49.5394 48.4973C49.535 48.5064 49.5301 48.5152 49.5255 48.5243C49.5144 48.5473 49.5047 48.5711 49.4939 48.5943C49.3371 48.9272 49.2009 49.2719 49.09 49.6276C49.0897 49.6286 49.0894 49.6295 49.0891 49.6305C48.8526 50.3906 48.725 51.1982 48.725 52.0352C48.725 56.5046 52.361 60.1406 56.8303 60.1406H56.8304H66.9914V65.1475H14.7432C14.1529 65.1475 13.6746 65.6259 13.6746 66.2161C13.6746 66.8063 14.153 67.2847 14.7432 67.2847H66.9916V70.2501ZM70.5166 57.7381C70.5166 57.8843 70.3976 58.0033 70.2513 58.0033H56.8307C54.5682 58.0033 52.5957 56.7378 51.5839 54.8776C51.5379 54.7931 51.494 54.7072 51.4519 54.6204C51.368 54.4465 51.2923 54.2679 51.2253 54.0851C50.9907 53.4455 50.8626 52.755 50.8626 52.0352C50.8626 51.3154 50.9908 50.6248 51.2253 49.9853C51.2924 49.8026 51.3681 49.6241 51.4519 49.45C51.494 49.3632 51.5379 49.2773 51.5839 49.1928C52.5957 47.3326 54.5682 46.0671 56.8307 46.0671H70.2513C70.3975 46.0671 70.5166 46.1861 70.5166 46.3323V57.7381Z" fill="#9099A6"/>
<path d="M57.082 47.6993C54.6911 47.6993 52.7461 49.6444 52.7461 52.0352C52.7461 54.426 54.6911 56.371 57.082 56.371C59.473 56.371 61.418 54.426 61.418 52.0352C61.418 49.6444 59.473 47.6993 57.082 47.6993ZM57.082 54.2337C55.8697 54.2337 54.8834 53.2474 54.8834 52.0352C54.8834 50.8231 55.8697 49.8366 57.082 49.8366C58.2943 49.8366 59.2806 50.8229 59.2806 52.0352C59.2806 53.2475 58.2943 54.2337 57.082 54.2337Z" fill="#9099A6"/>
</svg>
