<svg width="67" height="75" viewBox="0 0 67 75" fill="none" xmlns="http://www.w3.org/2000/svg">
<path d="M66.2243 56.4711C64.9056 54.5332 62.6723 54.058 60.2477 55.1984L43.3436 62.6416L43.3442 62.5899C43.3446 62.549 43.3429 62.508 43.3389 62.4674C43.0432 59.4938 40.7702 57.1245 37.8114 56.706C37.802 56.7046 37.7926 56.7034 37.7831 56.7024L26.5439 55.4083C24.17 55.07 23.0015 54.276 20.8022 52.9887C17.5475 51.0847 13.834 50.0784 10.0632 50.0784H9.36238V48.9411C9.36238 47.267 8.00052 45.905 6.32635 45.905H3.03588C1.36186 45.905 0 47.267 0 48.9411V69.9558C0 71.6298 1.36186 72.9918 3.03588 72.9918H6.3265C7.94076 72.9918 9.26102 71.7245 9.35345 70.1331L20.3548 74.228C21.7315 74.7403 23.1742 75 24.6426 75H39.8018C42.1256 75 44.3916 74.3452 46.3568 73.1062L65.3136 62.4113C66.6409 61.6617 67.8032 58.7917 66.2243 56.4711ZM64.1215 60.5611L45.253 71.2062C45.2366 71.2154 45.2207 71.2251 45.2047 71.2351C43.5865 72.2606 41.7181 72.8027 39.8018 72.8027H24.6426C23.4367 72.8027 22.2518 72.5894 21.1212 72.1686L9.36238 67.7918V59.821C9.36238 59.2141 8.87049 58.7224 8.26375 58.7224C7.65702 58.7224 7.16512 59.2141 7.16512 59.821V69.956C7.16512 70.4184 6.78895 70.7947 6.32635 70.7947H3.03588C2.57343 70.7947 2.19726 70.4186 2.19726 69.956V48.9412C2.19726 48.4788 2.57343 48.1024 3.03588 48.1024H6.3265C6.78895 48.1024 7.16527 48.4786 7.16527 48.9412V54.6834C7.16527 55.2903 7.65716 55.782 8.2639 55.782C8.87064 55.782 9.36253 55.2903 9.36253 54.6834V52.2756H10.0635C13.4447 52.2756 16.7745 53.178 19.693 54.8852C22.0248 56.2481 23.4413 57.1883 26.2501 57.5858C26.2595 57.5873 26.2688 57.5885 26.2784 57.5895L37.5171 58.8835C39.4447 59.1621 40.9284 60.6958 41.1465 62.6272L41.1389 63.2363C34.6094 63.1607 32.1254 63.454 27.9473 62.844L26.0018 62.56C25.4018 62.4728 24.8436 62.8878 24.756 63.4882C24.6684 64.0887 25.0839 64.6465 25.6844 64.7341L27.6298 65.0181C32.0686 65.6665 34.6287 65.3501 42.224 65.4336C42.3761 65.4336 42.5362 65.3981 42.6667 65.3404L61.1464 57.2036C61.1555 57.1997 61.1644 57.1954 61.1734 57.1913C62.1686 56.7208 63.5376 56.4283 64.4079 57.7071C65.0173 58.6031 64.89 59.8111 64.1215 60.5611Z" fill="#9099A6"/>
<path d="M13.6066 25.4197C14.4931 26.1332 14.8126 27.3259 14.4017 28.3873C13.2939 31.2477 15.1161 34.3937 18.1409 34.8638C18.8812 34.9788 19.5108 35.3976 19.9057 35.9903L14.7612 45.9658C14.4524 46.5648 14.5182 47.2668 14.9329 47.7979C15.3476 48.3288 16.0125 48.5624 16.6686 48.4083L22.2799 47.0867L24.4565 52.4247C24.711 53.0488 25.2872 53.455 25.9605 53.4849C25.987 53.486 26.0134 53.4866 26.0396 53.4866C26.6812 53.4866 27.2558 53.1378 27.5526 52.5624L32.3676 43.2261C33.1135 43.4054 33.8794 43.4057 34.6263 43.2261L39.4413 52.5624C39.7379 53.1378 40.3127 53.4866 40.9543 53.4866C40.9805 53.4866 41.0069 53.486 41.0334 53.4849C41.7065 53.455 42.2828 53.0486 42.5374 52.4247L44.714 47.0867L50.3253 48.4083C50.9814 48.5628 51.6463 48.3291 52.061 47.7979C52.4757 47.2668 52.5415 46.5648 52.2327 45.9658L47.0882 35.9903C47.4831 35.3976 48.1127 34.9788 48.8529 34.8638C51.8839 34.3927 53.6975 31.2418 52.5922 28.3873C52.1811 27.3259 52.5006 26.1332 53.3873 25.4197C55.775 23.4977 55.774 19.8624 53.3873 17.9411C52.5008 17.2276 52.1813 16.0349 52.5922 14.9736C53.6997 12.1131 51.8776 8.96717 48.853 8.4971C47.7283 8.32235 46.8553 7.4493 46.6805 6.32474C46.2096 3.29369 43.0586 1.47993 40.204 2.58544C39.1423 2.99648 37.9501 2.67685 37.2364 1.79033C35.3128 -0.599412 31.6773 -0.594139 29.7579 1.79033C29.0443 2.67685 27.8519 2.99619 26.7905 2.58544C23.9301 1.47773 20.7839 3.29999 20.314 6.32474C20.1392 7.4493 19.2662 8.32235 18.1416 8.4971C15.1106 8.96819 13.2971 12.1189 14.4023 14.9736C14.8133 16.0349 14.4939 17.2276 13.6072 17.9411C11.2173 19.8647 11.2218 23.5001 13.6066 25.4197ZM26.0884 50.6075L24.1558 45.8677C23.8366 45.0852 23.0081 44.6576 22.185 44.8515L17.2029 46.025L20.9419 38.7748C22.1206 40.736 24.5736 41.6339 26.7899 40.7753C27.851 40.3638 29.0437 40.6838 29.7575 41.5706C29.9542 41.8149 30.1726 42.0354 30.4072 42.2334L26.0884 50.6075ZM44.8082 44.8515C43.9857 44.6586 43.1568 45.0853 42.8375 45.8678L40.9049 50.6075L36.5862 42.2334C36.8207 42.0355 37.0391 41.8151 37.2358 41.5706C37.9496 40.684 39.1423 40.3649 40.2033 40.7753C42.42 41.6337 44.8729 40.7358 46.0512 38.7748L49.7902 46.025L44.8082 44.8515ZM14.9843 19.6529C16.6193 18.3369 17.2087 16.1376 16.4507 14.1804C15.85 12.6293 16.838 10.9233 18.4784 10.6684C20.5523 10.3462 22.1623 8.73616 22.4846 6.6621C22.7399 5.01913 24.4483 4.03461 25.9965 4.63446C27.954 5.39237 30.153 4.80321 31.469 3.16816C32.5121 1.87221 34.4834 1.875 35.5243 3.16816C36.8402 4.80292 39.0395 5.39223 40.9969 4.63446C42.5475 4.03373 44.2539 5.02177 44.5087 6.6621C44.831 8.73602 46.441 10.346 48.5151 10.6684C50.1586 10.9238 51.1421 12.6323 50.5426 14.1804C49.7847 16.1376 50.374 18.3369 52.0089 19.6529C53.3045 20.6957 53.302 22.6672 52.0089 23.708C50.3738 25.024 49.7845 27.2233 50.5426 29.1807C51.1432 30.7318 50.1551 32.4377 48.5149 32.6926C46.441 33.0149 44.831 34.6249 44.5087 36.699C44.2537 38.3397 42.5479 39.3267 40.9968 38.7264C39.0398 37.9691 36.8403 38.558 35.5243 40.1929C34.4815 41.4885 32.5099 41.486 31.469 40.1929C30.1552 38.5606 27.9568 37.9675 25.9964 38.7264C24.446 39.3273 22.7395 38.3394 22.4846 36.699C22.1623 34.625 20.5523 33.015 18.4782 32.6926C16.8347 32.4373 15.8512 30.7287 16.4507 29.1807C17.2087 27.2233 16.6193 25.024 14.9843 23.708C13.6886 22.665 13.6914 20.6935 14.9843 19.6529Z" fill="#9099A6"/>
<path d="M19.6468 23.1684C19.0505 23.2801 18.6573 23.854 18.7689 24.4503C20.0923 31.5252 26.2846 36.6604 33.4929 36.6604C41.7529 36.6604 48.4728 29.9404 48.4728 21.6805C48.4728 13.4205 41.7529 6.70056 33.4929 6.70056C26.2856 6.70056 20.0934 11.8347 18.7692 18.9083C18.6576 19.5046 19.0505 20.0785 19.647 20.1903C20.2439 20.3016 20.8174 19.9089 20.929 19.3125C22.0587 13.278 27.3425 8.89782 33.4929 8.89782C40.5413 8.89782 46.2756 14.6321 46.2756 21.6805C46.2756 28.7288 40.5413 34.4631 33.4929 34.4631C27.3416 34.4631 22.0577 30.0824 20.9287 24.0465C20.8172 23.45 20.2434 23.0581 19.6468 23.1684Z" fill="#9099A6"/>
<path d="M41.5864 17.5972L36.6998 17.3807L34.9839 12.8C34.4692 11.4264 32.5239 11.4267 32.0093 12.8002L30.2935 17.3809L25.4068 17.5974C23.9431 17.662 23.3386 19.5112 24.4876 20.4264L28.3138 23.4739L27.0096 28.1883C26.6185 29.6023 28.1923 30.7453 29.4162 29.9369L33.4967 27.2397L37.5774 29.937C38.7968 30.7426 40.3763 29.607 39.9839 28.1883L38.6797 23.4739L42.5059 20.4264C43.6536 19.5119 43.0514 17.6618 41.5864 17.5972ZM36.9959 22.0058C36.497 22.4032 36.2846 23.0571 36.4546 23.6716L37.4327 27.207L34.3725 25.1842C34.3725 25.1842 34.3724 25.1841 34.3722 25.1841C34.1063 25.0084 33.8015 24.9205 33.4967 24.9205C33.1918 24.9205 32.8869 25.0084 32.6207 25.1842L29.5605 27.207L30.5386 23.6718C30.7088 23.0571 30.4962 22.4032 29.9973 22.0058L27.128 19.7204L30.793 19.5581C31.4299 19.5298 31.9861 19.1256 32.2098 18.5286L33.4965 15.0935L34.7834 18.5287C35.0071 19.1256 35.5633 19.5298 36.2005 19.5581L39.8651 19.7204L36.9959 22.0058Z" fill="#9099A6"/>
</svg>
