<svg width="64" height="75" viewBox="0 0 64 75" fill="none" xmlns="http://www.w3.org/2000/svg">
<path d="M62.7997 12.9508C52.4807 10.1234 42.101 5.72082 32.7827 0.219177C32.2877 -0.0730589 31.6735 -0.0730589 31.1787 0.219177C21.5916 5.87888 11.7728 10.0433 1.16074 12.9508C0.475194 13.1385 0 13.7616 0 14.4725V30.5925C0 47.1925 7.65804 58.1806 14.0825 64.4751C20.9989 71.2522 29.0555 75 31.9807 75C34.9055 75 42.9622 71.2522 49.8785 64.4751C56.3029 58.1807 63.9605 47.1926 63.9605 30.5925V14.4724C63.9605 13.7616 63.4853 13.1385 62.7997 12.9508ZM60.8052 30.5923C60.8052 46.0967 53.6625 56.3498 47.6701 62.2212C40.8687 68.8855 33.5968 71.8445 31.9807 71.8445C30.3645 71.8445 23.0922 68.8855 16.2906 62.2212C10.2984 56.3497 3.15541 46.0967 3.15541 30.5923V15.67C13.3035 12.7887 22.7544 8.76755 31.981 3.40579C40.9771 8.62531 50.8995 12.8464 60.8052 15.6694V30.5923Z" fill="#9099A6"/>
<path d="M17.9957 15.4935C17.6764 14.6827 16.7604 14.2845 15.9495 14.6039C13.1311 15.7144 10.2384 16.7366 7.35161 17.6422C6.69375 17.8487 6.24609 18.4581 6.24609 19.1474V25.2398C6.24609 26.1111 6.95259 26.8175 7.82373 26.8175C8.69487 26.8175 9.40136 26.1111 9.40136 25.2398V20.3004C11.9911 19.4625 14.578 18.5357 17.1061 17.5395C17.9169 17.2203 18.3152 16.3043 17.9957 15.4935Z" fill="#9099A6"/>
<path d="M20.9953 15.7928C21.207 15.7928 21.4219 15.7502 21.628 15.6602L21.657 15.6476C22.4552 15.2978 22.8146 14.3687 22.4648 13.5708C22.1147 12.7726 21.1803 12.4115 20.383 12.761L20.3575 12.772C19.5589 13.1208 19.1982 14.0492 19.547 14.8475C19.8059 15.4402 20.3867 15.7928 20.9953 15.7928Z" fill="#9099A6"/>
<path d="M50.778 50.8714C50.0489 50.3949 49.0713 50.5999 48.5942 51.3292C47.2942 53.319 45.769 55.2245 44.0604 56.9921C42.6553 58.4455 41.1327 59.8002 39.535 61.0182C38.8423 61.5465 38.709 62.5364 39.2371 63.2294C39.5478 63.6365 40.0176 63.8507 40.4928 63.8507C40.8265 63.8507 41.1626 63.7453 41.4483 63.5274C43.1717 62.2133 44.8137 60.7524 46.3287 59.1853C48.176 57.2746 49.8269 55.2121 51.2357 53.0551C51.7126 52.3256 51.5073 51.348 50.778 50.8714Z" fill="#9099A6"/>
<path d="M35.8703 63.4925L35.7798 63.5459C35.0258 63.9825 34.7681 64.9476 35.2047 65.7015C35.4972 66.2069 36.0267 66.489 36.5715 66.489C36.8396 66.489 37.1117 66.4206 37.3603 66.2763L37.4648 66.215C38.2167 65.7746 38.4692 64.8083 38.0289 64.0564C37.5883 63.3047 36.6218 63.0526 35.8703 63.4925Z" fill="#9099A6"/>
<path d="M21.2277 34.2801C20.259 33.3113 18.9706 32.7781 17.6004 32.7781C16.2302 32.7781 14.9418 33.3114 13.9726 34.2801C11.9727 36.2805 11.9727 39.5354 13.9726 41.5356L23.2884 50.8511C24.2573 51.8197 25.5456 52.353 26.9159 52.353C28.2863 52.353 29.5746 51.8197 30.5436 50.8508L49.991 31.4033C51.9908 29.4025 51.9908 26.1481 49.9907 24.1484C49.0218 23.1796 47.7335 22.6464 46.363 22.6464C44.9927 22.6464 43.7043 23.1797 42.7353 24.1484L26.9158 39.9679L21.2277 34.2801ZM44.9666 26.3797C45.3394 26.0069 45.8355 25.8016 46.3632 25.8016C46.8911 25.8016 47.3868 26.0069 47.7599 26.3797C48.5297 27.1494 48.5297 28.4025 47.7596 29.1725L28.3125 48.6197C27.9397 48.9925 27.4436 49.1978 26.9159 49.1978C26.3883 49.1978 25.8922 48.9925 25.5192 48.6197L16.2037 39.3045C15.4336 38.5345 15.4336 37.2814 16.2034 36.5117C16.5764 36.1389 17.0725 35.9333 17.6003 35.9333C18.1281 35.9333 18.6239 36.1386 18.9967 36.5114L25.8002 43.315C26.0962 43.6107 26.4973 43.777 26.9158 43.777C27.3343 43.777 27.7354 43.6109 28.0311 43.315L44.9666 26.3797Z" fill="#9099A6"/>
</svg>
