<svg width="75" height="75" viewBox="0 0 75 75" fill="none" xmlns="http://www.w3.org/2000/svg">
<path d="M71.8519 33.669C71.7312 27.8239 70.1142 22.0954 67.1667 17.0632C69.565 5.5948 57.4346 -3.731 46.9875 1.48396C37.1392 -1.45131 25.6891 0.109528 16.6572 7.09941C15.5114 7.97772 16.8958 9.68412 17.9941 8.84256C20.768 6.71649 23.8409 5.06822 27.1276 3.94317C30.5543 2.77023 34.1429 2.19255 37.7963 2.2236C40.0805 2.24351 42.3504 2.50504 44.5627 3.00175C43.6997 3.67139 42.9157 4.43812 42.2272 5.28539C25.1369 2.36666 8.86831 15.5778 8.08857 32.7431C7.18755 32.6993 6.25898 32.762 5.38784 32.9995C5.69121 25.7194 8.46753 18.6639 13.1143 13.4596C14.0603 12.4003 12.421 10.9377 11.4751 11.997C6.25371 17.8447 3.2354 25.8591 3.16406 34.0352C1.25391 35.355 0 37.5592 0 40.0507V50.6632C0 55.3537 3.99521 58.0797 8.32383 57.9707C9.85547 62.3948 16.3122 61.4338 16.4221 56.6867V33.6502C16.4711 30.7167 13.2792 28.6318 10.6182 29.8441C12.8537 15.82 26.3837 5.41571 40.8532 7.30867C37.7474 12.6091 38.7899 20.0544 43.2876 24.3269V27.3091C43.4342 28.1922 43.943 28.5294 44.8138 28.3208L47.488 27.1913C52.5324 29.5538 59.1044 28.3473 62.9571 24.571C63.6201 26.2834 64.1043 28.0494 64.4067 29.855C61.7433 28.6233 58.529 30.7017 58.5782 33.6501V56.6865C58.5466 59.8103 62.0326 61.8564 64.7363 60.3176C64.7307 61.2881 64.713 62.2582 64.6749 63.2188C64.4133 66.3654 61.9863 69.0073 58.8911 69.5175C57.9076 69.6142 56.786 69.6516 55.4143 69.632C54.9226 67.8275 53.2689 66.497 51.3101 66.497H45.4764C39.8357 66.7299 39.8344 74.7667 45.4764 75H51.3098C53.2816 75 54.9442 73.6516 55.4237 71.8288C56.6634 71.8455 57.9759 71.889 59.2068 71.6915C63.312 71.0349 66.5912 67.5364 66.9243 63.3728C66.9255 63.3582 66.9237 63.3437 66.9243 63.3292C67.0008 61.4181 66.9431 59.488 66.9243 57.5937C71.1708 57.7994 75 54.7057 75 50.2862V39.6737C75 37.189 73.7531 34.99 71.8519 33.669ZM2.19727 50.6632V40.0507C2.19727 36.8491 5.01606 34.7659 8.04302 34.9397V55.7742C5.01445 55.9421 2.19727 53.8747 2.19727 50.6632ZM12.2713 31.6974C13.3485 31.6974 14.2248 32.5735 14.2248 33.6502V56.6867C14.1171 59.2781 10.4244 59.2759 10.3178 56.6867V33.6502C10.3178 32.5734 11.1942 31.6974 12.2713 31.6974ZM51.3098 72.8035H45.4764C44.3429 72.8035 43.4206 71.8817 43.4206 70.7484C43.4206 69.6152 44.3427 68.6934 45.4764 68.6934H51.3098C54.0354 68.8057 54.0376 72.6904 51.3098 72.8035ZM69.6139 32.623C68.7419 32.3849 67.8123 32.3224 66.9104 32.3662C66.6852 29.0412 65.906 25.815 64.5888 22.7577C65.2408 21.8953 65.7967 20.9565 66.2404 19.9572C68.2203 23.892 69.3722 28.2098 69.6139 32.623ZM53.2537 26.2145C51.4087 26.2145 49.6386 25.8068 47.9924 25.003C47.6909 24.8632 47.3877 24.855 47.0826 24.9781L45.4849 25.6529V23.8566C45.4849 23.5494 45.3562 23.2562 45.1301 23.0483C37.1306 15.7096 42.3844 2.21642 53.2538 2.22242C69.1761 2.88094 69.1724 25.5577 53.2537 26.2145ZM72.8027 50.2862C72.8027 53.5225 69.9444 55.5812 66.8988 55.3972C66.8851 54.2169 66.8773 53.0367 66.8795 51.8564C66.8795 50.4364 64.6822 50.4364 64.6822 51.8564V56.6865C64.6822 57.7634 63.8058 58.6394 62.7287 58.6394C61.6516 58.6394 60.7752 57.7634 60.7752 56.6865V33.6502C60.8795 31.0658 64.5727 31.054 64.6822 33.6502V46.0099C64.6822 47.4298 66.8795 47.4298 66.8795 46.0099V34.5627C69.9325 34.3899 72.8027 36.4094 72.8027 39.6737V50.2862Z" fill="#9099A6"/>
<path d="M47.4933 61.8692C48.3641 62.0778 48.8729 61.7407 49.0195 60.8574V57.2716C59.5446 47.0417 52.2008 28.9637 37.4982 28.9826C28.4018 28.9824 21.0011 36.3794 21.0011 45.4712C20.8617 57.2673 33.5861 65.4802 44.2727 60.5091L47.4933 61.8692ZM43.7669 58.32C34.4767 62.9967 23.0708 55.8806 23.1985 45.471C23.1984 37.5904 29.6134 31.1789 37.4984 31.1789C50.4495 31.1731 56.7076 47.249 47.177 55.9912C46.9508 56.1991 46.8222 56.4922 46.8222 56.7995V59.2013L44.6767 58.2951C44.3841 58.1716 44.0522 58.1806 43.7669 58.32Z" fill="#9099A6"/>
<path d="M34.5635 40.4094H40.4406C41.8611 40.4094 41.8611 38.2129 40.4406 38.2129H34.5635C33.1429 38.2129 33.1429 40.4094 34.5635 40.4094Z" fill="#9099A6"/>
<path d="M40.4405 50.533H34.5634C33.1429 50.533 33.1429 52.7295 34.5634 52.7295H40.4405C41.8609 52.7295 41.8609 50.533 40.4405 50.533Z" fill="#9099A6"/>
<path d="M43.5844 44.373H31.4189C29.9984 44.373 29.9984 46.5695 31.4189 46.5695H43.5844C45.0048 46.5695 45.0048 44.373 43.5844 44.373Z" fill="#9099A6"/>
<path d="M53.3496 5.83697C50.7544 5.78732 48.5605 7.93244 48.5605 10.5271C48.5605 11.9471 50.7578 11.9471 50.7578 10.5271C50.7578 9.17508 51.9484 8.00346 53.3053 8.03304C54.6061 8.05925 55.6779 9.09585 55.7453 10.393C55.8186 11.8031 54.6678 13.0218 53.2533 13.0218C52.6466 13.0218 52.1547 13.5135 52.1547 14.12V17.8769C52.1547 18.4834 52.6466 18.9752 53.2533 18.9752C53.8601 18.9752 54.352 18.4834 54.352 17.8769V15.0865C56.5221 14.5603 58.0554 12.5098 57.9395 10.279C57.8128 7.83755 55.7966 5.88631 53.3496 5.83697Z" fill="#9099A6"/>
<path d="M53.2504 20.5493C51.837 20.5493 51.8346 22.7458 53.2504 22.7458C54.6636 22.7458 54.6659 20.5493 53.2504 20.5493Z" fill="#9099A6"/>
</svg>
