<svg width="67" height="75" viewBox="0 0 67 75" fill="none" xmlns="http://www.w3.org/2000/svg">
<path fill-rule="evenodd" clip-rule="evenodd" d="M64.5395 30.2748H14.5632L62.566 16.3691C62.939 16.2609 63.2537 16.0086 63.4414 15.6687C63.6291 15.3282 63.6737 14.9277 63.5656 14.5546L61.0536 5.88284C60.05 2.41928 56.825 0 53.211 0C52.4494 0 51.6906 0.108147 50.9548 0.321007L5.8851 13.377C3.80056 13.9807 2.07307 15.3666 1.01964 17.2783C-0.0332135 19.19 -0.280406 21.3913 0.32327 23.4753L2.77746 31.9473V66.8478C2.77746 71.343 6.43441 75 10.9291 75H28.5312C29.3403 75 29.9961 74.3443 29.9961 73.5352C29.9961 72.7261 29.3403 72.0703 28.5312 72.0703H10.9297C8.04975 72.0703 5.70714 69.7277 5.70714 66.8478V46.9133H13.2116H13.215H13.2179H24.6895H24.6929H24.6963H36.1679H36.1713H36.1747H47.6463H47.6497H47.6526H63.0746V66.8478C63.0746 69.7277 60.732 72.0703 57.8521 72.0703H40.25C39.4415 72.0703 38.7851 72.7261 38.7851 73.5352C38.7851 74.3443 39.4415 75 40.25 75H57.8521C62.3474 75 66.0043 71.343 66.0043 66.8478V31.7396C66.0043 30.9305 65.3486 30.2748 64.5395 30.2748ZM38.7096 43.9837L44.9335 33.2045H53.0285L46.8052 43.9837H38.7096ZM27.2312 43.9837L33.4551 33.2045H41.55L35.3267 43.9837H27.2312ZM15.7533 43.9837L21.9766 33.2045H30.0722L23.8483 43.9837H15.7533ZM21.1996 25.0202L10.7774 15.0101L18.5863 12.7481C18.6413 12.8283 18.7053 12.9038 18.7786 12.9742L29.2007 22.9843L21.3918 25.2462C21.3369 25.1661 21.2723 25.09 21.1996 25.0202ZM40.8285 6.58665L51.2506 16.5968L43.4417 18.8587C43.3868 18.7786 43.3227 18.7025 43.2495 18.6327L32.8274 8.62255L40.6362 6.36063C40.6912 6.44073 40.7552 6.51627 40.8285 6.58665ZM29.8032 9.78069L40.2254 19.7903L32.4165 22.0528C32.3616 21.9727 32.2975 21.8966 32.2242 21.8267L21.8021 11.8166L29.611 9.55467C29.6665 9.63421 29.7306 9.71031 29.8032 9.78069ZM51.7702 3.13511C52.2405 2.99892 52.7252 2.92969 53.211 2.92969C55.529 2.92969 57.5964 4.47922 58.2395 6.69823L60.3441 13.9624L54.467 15.6647C54.4115 15.5846 54.3474 15.509 54.2741 15.4387L43.8526 5.42908L51.7702 3.13511ZM3.58598 18.6916C4.26118 17.4654 5.36725 16.5773 6.70049 16.1911L7.56108 15.9416C7.61659 16.0217 7.68068 16.0978 7.75335 16.1676L18.1755 26.1778L5.24194 29.9246L3.13737 22.6604C2.75113 21.3278 2.91078 19.9184 3.58598 18.6916ZM5.70714 33.2045H18.5938L12.3705 43.9837H5.70714V33.2045ZM50.188 43.9837L56.4113 33.2045H63.0746V43.9837H50.188Z" fill="#9099A6"/>
<path fill-rule="evenodd" clip-rule="evenodd" d="M44.5198 59.3428C44.5198 58.8192 44.2406 58.3357 43.7874 58.0742L30.918 50.6441C30.4648 50.3826 29.9063 50.3826 29.4531 50.6441C28.9999 50.9056 28.7207 51.3891 28.7207 51.9127V66.7729C28.7207 67.2958 28.9999 67.7794 29.4531 68.0409C29.6797 68.1719 29.9326 68.2377 30.1855 68.2377C30.4385 68.2377 30.6914 68.1719 30.918 68.0409L43.7874 60.6114C44.2406 60.3499 44.5198 59.8663 44.5198 59.3428ZM31.6504 64.2357V54.4499L40.1253 59.3428L31.6504 64.2357Z" fill="#9099A6"/>
<path fill-rule="evenodd" clip-rule="evenodd" d="M34.3926 72.0703C33.5858 72.0703 32.9277 72.7283 32.9277 73.5352C32.9277 74.342 33.5858 75 34.3926 75C35.2 75 35.8574 74.342 35.8574 73.5352C35.8574 72.7283 35.2 72.0703 34.3926 72.0703Z" fill="#9099A6"/>
</svg>
