<svg width="91" height="75" viewBox="0 0 91 75" fill="none" xmlns="http://www.w3.org/2000/svg">
<path d="M84.612 35.1613H72.2144C71.8719 35.1613 71.5434 35.0252 71.3013 34.783C71.0591 34.5408 70.923 34.2123 70.923 33.8698C70.923 33.5273 71.0591 33.1989 71.3013 32.9567C71.5434 32.7145 71.8719 32.5784 72.2144 32.5784H84.612C85.4614 32.5774 86.2757 32.2395 86.8764 31.6389C87.477 31.0382 87.8149 30.2239 87.8159 29.3744V5.78811C87.8149 4.93855 87.4771 4.12406 86.8765 3.52322C86.2759 2.92237 85.4615 2.58419 84.612 2.58282H5.78681C4.93726 2.58419 4.12291 2.92237 3.5223 3.52322C2.9217 4.12406 2.58385 4.93855 2.58282 5.78811V29.3744C2.58385 30.2239 2.92174 31.0382 3.52238 31.6389C4.12302 32.2395 4.93738 32.5774 5.78681 32.5784H20.4456C20.7881 32.5784 21.1166 32.7145 21.3588 32.9567C21.601 33.1989 21.737 33.5273 21.737 33.8698C21.737 34.2123 21.601 34.5408 21.3588 34.783C21.1166 35.0252 20.7881 35.1613 20.4456 35.1613H5.78681C4.25268 35.1592 2.78198 34.5489 1.69718 33.4641C0.612389 32.3793 0.00205006 30.9086 0 29.3744V5.78811C0.00170841 4.25375 0.611896 2.78271 1.69673 1.69764C2.78156 0.612567 4.25246 0.00205078 5.78681 0H84.612C86.1463 0.00205078 87.6172 0.612567 88.702 1.69764C89.7869 2.78271 90.3971 4.25375 90.3988 5.78811V29.3744C90.3967 30.9086 89.7864 32.3793 88.7016 33.4641C87.6168 34.5489 86.1461 35.1592 84.612 35.1613Z" fill="#9099A6"/>
<path d="M78.4829 24.0848H72.2221C71.8796 24.0848 71.5511 23.9487 71.3089 23.7066C71.0667 23.4644 70.9307 23.1359 70.9307 22.7934C70.9307 22.4509 71.0667 22.1224 71.3089 21.8802C71.5511 21.638 71.8796 21.502 72.2221 21.502H77.1915V14.7027H13.2098V21.502H20.4417C20.7842 21.502 21.1127 21.638 21.3548 21.8802C21.597 22.1224 21.7331 22.4509 21.7331 22.7934C21.7331 23.1359 21.597 23.4644 21.3548 23.7066C21.1127 23.9487 20.7842 24.0848 20.4417 24.0848H11.9184C11.5759 24.0848 11.2474 23.9487 11.0052 23.7066C10.763 23.4644 10.627 23.1359 10.627 22.7934V13.4113C10.627 13.0688 10.763 12.7403 11.0052 12.4981C11.2474 12.2559 11.5759 12.1199 11.9184 12.1199H78.4829C78.8254 12.1199 79.1538 12.2559 79.396 12.4981C79.6382 12.7403 79.7743 13.0688 79.7743 13.4113V22.7934C79.7743 23.1359 79.6382 23.4644 79.396 23.7066C79.1538 23.9487 78.8254 24.0848 78.4829 24.0848Z" fill="#9099A6"/>
<path d="M67.5499 75H25.1167C23.5359 74.9983 22.0203 74.3695 20.9025 73.2517C19.7847 72.1339 19.156 70.6184 19.1543 69.0375V13.4113C19.1543 13.0688 19.2904 12.7403 19.5325 12.4981C19.7747 12.2559 20.1032 12.1199 20.4457 12.1199H72.221C72.5635 12.1199 72.8919 12.2559 73.1341 12.4981C73.3763 12.7403 73.5124 13.0688 73.5124 13.4113V69.0375C73.5107 70.6184 72.8819 72.1339 71.7641 73.2517C70.6463 74.3695 69.1307 74.9983 67.5499 75ZM21.7371 14.7027V69.0375C21.7381 69.9336 22.0945 70.7926 22.7281 71.4262C23.3617 72.0597 24.2207 72.4161 25.1167 72.4172H67.5499C68.4459 72.4161 69.305 72.0597 69.9385 71.4262C70.5721 70.7926 70.9285 69.9336 70.9296 69.0375V14.7027H21.7371Z" fill="#9099A6"/>
<path d="M56.0184 67.1043H36.6472C36.3047 67.1043 35.9762 66.9682 35.7341 66.726C35.4919 66.4839 35.3558 66.1554 35.3558 65.8129C35.3534 63.9527 34.6132 62.1694 33.2976 60.8543C31.982 59.5392 30.1985 58.7996 28.3383 58.7979C27.9958 58.7979 27.6673 58.6619 27.4251 58.4197C27.1829 58.1775 27.0469 57.849 27.0469 57.5065V13.4113C27.0469 13.0688 27.1829 12.7403 27.4251 12.4981C27.6673 12.2559 27.9958 12.1199 28.3383 12.1199H64.326C64.6685 12.1199 64.997 12.2559 65.2392 12.4981C65.4814 12.7403 65.6175 13.0688 65.6175 13.4113V57.5065C65.6175 57.849 65.4814 58.1775 65.2392 58.4197C64.997 58.6619 64.6685 58.7979 64.326 58.7979C62.4661 58.8 60.6828 59.5397 59.3675 60.8548C58.0522 62.1698 57.3122 63.9529 57.3098 65.8129C57.3098 66.1554 57.1737 66.4839 56.9316 66.726C56.6894 66.9682 56.3609 67.1043 56.0184 67.1043ZM37.8534 64.5215H54.8135C55.099 62.4419 56.0571 60.5129 57.5415 59.0287C59.0258 57.5446 60.955 56.5868 63.0346 56.3016V14.7027H29.631V56.3016C31.7107 56.587 33.6399 57.5447 35.1245 59.0288C36.609 60.5129 37.5674 62.4419 37.8534 64.5215Z" fill="#9099A6"/>
<path d="M46.3337 45.88C43.7702 45.88 41.2644 45.1199 39.133 43.6957C37.0016 42.2715 35.3404 40.2472 34.3595 37.8789C33.3786 35.5106 33.122 32.9046 33.6222 30.3904C34.1224 27.8763 35.3569 25.5669 37.1696 23.7544C38.9823 21.9419 41.2918 20.7076 43.806 20.2077C46.3202 19.7077 48.9261 19.9646 51.2944 20.9457C53.6626 21.9269 55.6867 23.5883 57.1106 25.7198C58.5346 27.8514 59.2945 30.3573 59.2943 32.9207C59.2902 36.3567 57.9233 39.6508 55.4936 42.0802C53.0638 44.5097 49.7696 45.8762 46.3337 45.88ZM46.3337 22.5416C44.2812 22.5416 42.2748 23.1502 40.5682 24.2905C38.8616 25.4308 37.5315 27.0515 36.746 28.9477C35.9605 30.8439 35.7549 32.9305 36.1552 34.9435C36.5555 36.9566 37.5438 38.8057 38.995 40.2572C40.4462 41.7086 42.2953 42.6971 44.3083 43.0976C46.3213 43.4982 48.4079 43.2929 50.3042 42.5076C52.2005 41.7223 53.8214 40.3924 54.9618 38.6859C56.1023 36.9795 56.7112 34.9732 56.7114 32.9207C56.7087 30.1691 55.6145 27.5309 53.6689 25.5851C51.7233 23.6392 49.0853 22.5447 46.3337 22.5416Z" fill="#9099A6"/>
<path d="M39.041 32.235H40.0961C40.1 31.1446 40.4072 30.0768 40.9833 29.1511L42.3341 29.6341C41.7727 30.4985 41.4719 31.5063 41.4676 32.5371C41.4676 33.968 42.2941 34.9353 43.4421 34.9353C44.5502 34.9353 45.2359 34.1488 45.8403 32.6572C46.6461 30.6026 47.5734 29.3332 49.3271 29.3332C50.1496 29.3456 50.9379 29.6643 51.538 30.227C52.1382 30.7896 52.507 31.5557 52.5724 32.3757H53.6275V33.6258H52.6525C52.6455 34.5457 52.4023 35.4485 51.9461 36.2474L50.6237 35.7411C51.0803 34.9736 51.3171 34.0953 51.3081 33.2022C51.3081 31.6525 50.3809 31.0662 49.5751 31.0662C48.5277 31.0662 48.0034 31.8114 47.2776 33.5651C46.4318 35.6404 45.3831 36.689 43.5894 36.689C42.7264 36.6729 41.8998 36.3392 41.2676 35.7516C40.6355 35.164 40.2423 34.3639 40.1633 33.5044H39.0475L39.041 32.235Z" fill="#9099A6"/>
<path d="M43.5816 36.8543C42.7047 36.8387 41.8626 36.5085 41.2088 35.924C40.555 35.3394 40.1331 34.5393 40.0199 33.6697H39.0384C38.9956 33.6697 38.9545 33.6526 38.9242 33.6224C38.894 33.5921 38.877 33.551 38.877 33.5082V32.2388C38.877 32.196 38.894 32.1549 38.9242 32.1246C38.9545 32.0944 38.9956 32.0773 39.0384 32.0773H39.9424C39.9695 31.0081 40.2844 29.9659 40.8541 29.0606C40.8743 29.0321 40.9033 29.011 40.9367 29.0005C40.97 28.99 41.0059 28.9907 41.0388 29.0025L42.3896 29.4868C42.4128 29.4951 42.4338 29.5087 42.4511 29.5263C42.4683 29.544 42.4813 29.5654 42.489 29.5888C42.4964 29.612 42.4986 29.6364 42.4954 29.6605C42.4923 29.6846 42.484 29.7077 42.471 29.7283C41.9262 30.5656 41.6343 31.5421 41.6302 32.541C41.6302 33.8569 42.3767 34.7777 43.4447 34.7777C44.4158 34.7777 45.068 34.1462 45.693 32.6004C46.3904 30.8221 47.315 29.1755 49.3283 29.1755C50.1655 29.1847 50.9707 29.4987 51.593 30.0587C52.2154 30.6188 52.6122 31.3865 52.7093 32.2181H53.6287C53.65 32.2179 53.6711 32.222 53.6907 32.23C53.7104 32.2381 53.7282 32.25 53.7433 32.265C53.7583 32.28 53.7702 32.2979 53.7782 32.3176C53.7863 32.3372 53.7903 32.3583 53.7902 32.3795V33.6257C53.7903 33.647 53.7863 33.6681 53.7782 33.6877C53.7702 33.7074 53.7583 33.7253 53.7433 33.7403C53.7282 33.7553 53.7104 33.7672 53.6907 33.7752C53.6711 33.7833 53.65 33.7873 53.6287 33.7872H52.81C52.7799 34.6805 52.5321 35.5529 52.0881 36.3287C52.0691 36.3615 52.039 36.3864 52.0032 36.3989C51.9675 36.4115 51.9284 36.4108 51.8931 36.3971L50.5616 35.8935C50.5398 35.8853 50.52 35.8723 50.5037 35.8556C50.4874 35.8388 50.475 35.8187 50.4674 35.7966C50.4598 35.7755 50.4569 35.7531 50.4589 35.7308C50.4609 35.7084 50.4678 35.6869 50.479 35.6675C50.9216 34.9262 51.1513 34.0772 51.1428 33.2138C51.1428 31.7558 50.2956 31.2392 49.5711 31.2392C48.6852 31.2392 48.1842 31.7997 47.4235 33.6374C46.4976 35.8857 45.3495 36.8543 43.5816 36.8543ZM39.1998 33.3468H40.1555C40.1928 33.3466 40.229 33.3594 40.258 33.383C40.2869 33.4065 40.3068 33.4394 40.3143 33.4759C40.3895 34.2968 40.7641 35.0613 41.3666 35.6238C41.9691 36.1863 42.7575 36.5075 43.5816 36.5263C45.2191 36.5263 46.2445 35.6494 47.1213 33.5018C47.8497 31.7416 48.4011 30.9035 49.5673 30.9035C50.51 30.9035 51.4618 31.6137 51.4618 33.2009C51.4713 34.058 51.2596 34.9032 50.847 35.6546L51.8737 36.042C52.2693 35.2937 52.4805 34.4618 52.4897 33.6154C52.4907 33.5734 52.5082 33.5335 52.5384 33.5042C52.5686 33.475 52.6091 33.4588 52.6511 33.4592H53.4634V32.5332H52.5711C52.5337 32.5336 52.4973 32.5209 52.4683 32.4973C52.4393 32.4738 52.4195 32.4408 52.4122 32.4041C52.3506 31.6233 52.0013 30.8932 51.432 30.3554C50.8627 29.8176 50.1139 29.5103 49.3309 29.4932C47.6108 29.4932 46.7546 30.7846 45.9952 32.714C45.3198 34.3838 44.5579 35.0954 43.4473 35.0954C43.1346 35.0793 42.8286 34.9987 42.5486 34.8588C42.2685 34.7189 42.0203 34.5226 41.8197 34.2823C41.619 34.042 41.4702 33.7628 41.3825 33.4623C41.2947 33.1617 41.2701 32.8463 41.31 32.5358C41.3148 31.5433 41.5854 30.5703 42.0939 29.7179L41.0504 29.3447C40.5439 30.2249 40.2726 31.2207 40.2626 32.2362C40.262 32.2786 40.2447 32.319 40.2145 32.3487C40.1843 32.3784 40.1436 32.395 40.1012 32.395H39.2063L39.1998 33.3468Z" fill="#9099A6"/>
<path d="M46.3327 59.4927C45.4132 59.4927 44.5143 59.2201 43.7498 58.7092C42.9853 58.1984 42.3894 57.4723 42.0375 56.6228C41.6856 55.7733 41.5935 54.8385 41.7729 53.9367C41.9523 53.0348 42.3951 52.2064 43.0453 51.5563C43.6955 50.9061 44.5239 50.4633 45.4257 50.2839C46.3275 50.1045 47.2623 50.1966 48.1118 50.5485C48.9613 50.9004 49.6874 51.4962 50.1982 52.2608C50.7091 53.0253 50.9818 53.9242 50.9818 54.8437C50.9818 55.4542 50.8615 56.0587 50.6279 56.6228C50.3942 57.1868 50.0518 57.6994 49.6201 58.1311C49.1884 58.5628 48.6759 58.9052 48.1118 59.1389C47.5478 59.3725 46.9432 59.4927 46.3327 59.4927ZM46.3327 52.7774C45.924 52.7774 45.5245 52.8986 45.1847 53.1256C44.8449 53.3527 44.5801 53.6754 44.4237 54.0529C44.2673 54.4305 44.2264 54.846 44.3061 55.2468C44.3858 55.6476 44.5826 56.0158 44.8716 56.3047C45.1606 56.5937 45.5288 56.7905 45.9296 56.8702C46.3304 56.9499 46.7458 56.909 47.1234 56.7526C47.501 56.5962 47.8237 56.3314 48.0507 55.9916C48.2778 55.6518 48.3989 55.2523 48.3989 54.8437C48.3979 54.2963 48.1798 53.7718 47.7924 53.3851C47.405 52.9984 46.88 52.7813 46.3327 52.7813V52.7774Z" fill="#9099A6"/>
</svg>
